<?xml version="1.0" encoding="UTF-8"?>
<svg width="64px" height="64px" viewBox="0 0 64 64" version="1.1" xmlns="http://www.w3.org/2000/svg" xmlns:xlink="http://www.w3.org/1999/xlink">
    <title>Combined Shape</title>
    <g id="Page-1" stroke="none" stroke-width="1" fill="none" fill-rule="evenodd">
        <g id="Desktop-HD-Copy-4" transform="translate(-120.000000, -247.000000)" fill="#6431AB">
            <path d="M153.882,247 L153.882,276.538 L140.051282,276.538462 C138.99692,276.538462 138.133117,277.354339 138.056768,278.389199 L138.051282,278.538462 L138.051282,279.461538 C138.051282,280.5159 138.86716,281.379704 139.90202,281.456053 L140.051282,281.461538 L153.882,281.461 L153.882,311 L136,311 C127.163444,311 120,303.836556 120,295 L120,263 C120,254.163444 127.163444,247 136,247 L153.882,247 Z M159.529,281.461 L184,281.461 L184,295 C184,303.836556 176.836556,311 168,311 L159.529,311 L159.529,281.461 Z M168,247 C176.836556,247 184,254.163444 184,263 L184,276.538 L159.529,276.538 L159.529,247 L168,247 Z" id="Combined-Shape"></path>
        </g>
    </g>
</svg>