<?xml version="1.0" encoding="UTF-8"?>
<svg width="198px" height="34px" viewBox="0 0 198 34" version="1.1" xmlns="http://www.w3.org/2000/svg" xmlns:xlink="http://www.w3.org/1999/xlink">
    <title>Group 4</title>
    <g id="Page-1" stroke="none" stroke-width="1" fill="none" fill-rule="evenodd">
        <g id="Desktop-HD-Copy-9" transform="translate(-190.000000, -327.000000)" fill="#FFFFFF">
            <g id="Bitmap" transform="translate(105.000000, 269.009607)">
                <g id="Group-4" transform="translate(85.000000, 57.990393)">
                    <g id="Crowdbux" transform="translate(42.975128, 4.454529)" fill-rule="nonzero">
                        <path d="M0,11.9305128 C0,9.85564103 0.483119658,7.99435897 1.44935897,6.34666667 C2.41559829,4.69897436 3.72764957,3.41235043 5.38551282,2.48679487 C7.04337607,1.56123932 8.85888889,1.09846154 10.8320513,1.09846154 C13.09,1.09846154 15.0987607,1.65277778 16.8583333,2.76141026 C18.617906,3.87004274 19.894359,5.44145299 20.6876923,7.47564103 L16.5074359,7.47564103 C15.9582051,6.35683761 15.1953846,5.52282051 14.2189744,4.97358974 C13.2425641,4.42435897 12.1135897,4.14974359 10.8320513,4.14974359 C9.42846154,4.14974359 8.1774359,4.46504274 7.07897436,5.09564103 C5.98051282,5.72623932 5.12106838,6.63145299 4.50064103,7.81128205 C3.88021368,8.99111111 3.57,10.364188 3.57,11.9305128 C3.57,13.4968376 3.88021368,14.8699145 4.50064103,16.0497436 C5.12106838,17.2295726 5.98051282,18.1398718 7.07897436,18.780641 C8.1774359,19.4214103 9.42846154,19.7417949 10.8320513,19.7417949 C12.1135897,19.7417949 13.2425641,19.4671795 14.2189744,18.9179487 C15.1953846,18.3687179 15.9582051,17.5347009 16.5074359,16.4158974 L20.6876923,16.4158974 C19.894359,18.4500855 18.617906,20.0164103 16.8583333,21.1148718 C15.0987607,22.2133333 13.09,22.7625641 10.8320513,22.7625641 C8.83854701,22.7625641 7.01794872,22.2997863 5.37025641,21.3742308 C3.7225641,20.4486752 2.41559829,19.1620513 1.44935897,17.514359 C0.483119658,15.8666667 0,14.0053846 0,11.9305128 Z" id="Path"></path>
                        <path d="M28.224359,8.20794872 C28.732906,7.35358974 29.4092735,6.68739316 30.2534615,6.20935897 C31.0976496,5.73132479 32.0994872,5.49230769 33.2589744,5.49230769 L33.2589744,9.09282051 L32.3741026,9.09282051 C31.0111966,9.09282051 29.9788462,9.43863248 29.2770513,10.1302564 C28.5752564,10.8218803 28.224359,12.0220513 28.224359,13.7307692 L28.224359,22.5794872 L24.7458974,22.5794872 L24.7458974,5.76692308 L28.224359,5.76692308 L28.224359,8.20794872 Z" id="Path"></path>
                        <path d="M43.7553846,22.8541026 C42.1687179,22.8541026 40.7346154,22.4930342 39.4530769,21.7708974 C38.1715385,21.0487607 37.1646154,20.0316667 36.4323077,18.7196154 C35.7,17.4075641 35.3338462,15.8870085 35.3338462,14.1579487 C35.3338462,12.4492308 35.7101709,10.9337607 36.4628205,9.61153846 C37.2154701,8.28931624 38.242735,7.27222222 39.5446154,6.56025641 C40.8464957,5.8482906 42.3009402,5.49230769 43.9079487,5.49230769 C45.5149573,5.49230769 46.9694017,5.8482906 48.2712821,6.56025641 C49.5731624,7.27222222 50.6004274,8.28931624 51.3530769,9.61153846 C52.1057265,10.9337607 52.4820513,12.4492308 52.4820513,14.1579487 C52.4820513,15.8666667 52.0955556,17.3821368 51.3225641,18.704359 C50.5495726,20.0265812 49.4968803,21.0487607 48.1644872,21.7708974 C46.832094,22.4930342 45.3623932,22.8541026 43.7553846,22.8541026 Z M43.7553846,19.8333333 C44.6504274,19.8333333 45.4895299,19.6197436 46.2726923,19.1925641 C47.0558547,18.7653846 47.6915385,18.1246154 48.1797436,17.2702564 C48.6679487,16.4158974 48.9120513,15.3784615 48.9120513,14.1579487 C48.9120513,12.9374359 48.6781197,11.9050855 48.2102564,11.0608974 C47.7423932,10.2167094 47.1219658,9.58102564 46.3489744,9.15384615 C45.5759829,8.72666667 44.7419658,8.51307692 43.8469231,8.51307692 C42.9518803,8.51307692 42.1229487,8.72666667 41.3601282,9.15384615 C40.5973077,9.58102564 39.9921368,10.2167094 39.5446154,11.0608974 C39.097094,11.9050855 38.8733333,12.9374359 38.8733333,14.1579487 C38.8733333,15.9683761 39.3361111,17.3668803 40.2616667,18.3534615 C41.1872222,19.3400427 42.3517949,19.8333333 43.7553846,19.8333333 Z" id="Shape"></path>
                        <polygon id="Path" points="78.5094872 5.76692308 73.2917949 22.5794872 69.6302564 22.5794872 66.2433333 10.1607692 62.8564103 22.5794872 59.1948718 22.5794872 53.9466667 5.76692308 57.4861538 5.76692308 60.9951282 19.2841026 64.5651282 5.76692308 68.1961538 5.76692308 71.6135897 19.2230769 75.0920513 5.76692308"></polygon>
                        <path d="M79.9435897,14.0969231 C79.9435897,12.408547 80.2944872,10.9134188 80.9962821,9.61153846 C81.6980769,8.30965812 82.6541453,7.29764957 83.8644872,6.57551282 C85.0748291,5.85337607 86.4224786,5.49230769 87.9074359,5.49230769 C89.0058974,5.49230769 90.0891026,5.73132479 91.1570513,6.20935897 C92.225,6.68739316 93.0742735,7.32307692 93.7048718,8.11641026 L93.7048718,0 L97.2138462,0 L97.2138462,22.5794872 L93.7048718,22.5794872 L93.7048718,20.0469231 C93.1352991,20.8605983 92.3470513,21.5318803 91.3401282,22.0607692 C90.3332051,22.5896581 89.1788034,22.8541026 87.8769231,22.8541026 C86.4123077,22.8541026 85.0748291,22.4828632 83.8644872,21.7403846 C82.6541453,20.997906 81.6980769,19.9604701 80.9962821,18.6280769 C80.2944872,17.2956838 79.9435897,15.7852991 79.9435897,14.0969231 Z M93.7048718,14.1579487 C93.7048718,12.9984615 93.4658547,11.9915385 92.9878205,11.1371795 C92.5097863,10.2828205 91.8842735,9.63188034 91.1112821,9.18435897 C90.3382906,8.73683761 89.5042735,8.51307692 88.6092308,8.51307692 C87.714188,8.51307692 86.8801709,8.73175214 86.1071795,9.16910256 C85.334188,9.60645299 84.7086752,10.2472222 84.230641,11.0914103 C83.7526068,11.9355983 83.5135897,12.9374359 83.5135897,14.0969231 C83.5135897,15.2564103 83.7526068,16.2735043 84.230641,17.1482051 C84.7086752,18.022906 85.3392735,18.6891026 86.1224359,19.1467949 C86.9055983,19.6044872 87.7345299,19.8333333 88.6092308,19.8333333 C89.5042735,19.8333333 90.3382906,19.6095726 91.1112821,19.1620513 C91.8842735,18.7145299 92.5097863,18.0585043 92.9878205,17.1939744 C93.4658547,16.3294444 93.7048718,15.3174359 93.7048718,14.1579487 Z" id="Shape"></path>
                        <path d="M105.269231,8.26897436 C105.859145,7.45529915 106.667735,6.78910256 107.695,6.27038462 C108.722265,5.75166667 109.866496,5.49230769 111.127692,5.49230769 C112.61265,5.49230769 113.955214,5.8482906 115.155385,6.56025641 C116.355556,7.27222222 117.301453,8.28423077 117.993077,9.59628205 C118.684701,10.9083333 119.030513,12.408547 119.030513,14.0969231 C119.030513,15.7852991 118.684701,17.2956838 117.993077,18.6280769 C117.301453,19.9604701 116.35047,20.997906 115.140128,21.7403846 C113.929786,22.4828632 112.592308,22.8541026 111.127692,22.8541026 C109.825812,22.8541026 108.67141,22.5998291 107.664487,22.0912821 C106.657564,21.582735 105.859145,20.9317949 105.269231,20.1384615 L105.269231,22.5794872 L101.790769,22.5794872 L101.790769,0 L105.269231,0 L105.269231,8.26897436 Z M115.491026,14.0969231 C115.491026,12.9374359 115.252009,11.9355983 114.773974,11.0914103 C114.29594,10.2472222 113.665342,9.60645299 112.882179,9.16910256 C112.099017,8.73175214 111.259915,8.51307692 110.364872,8.51307692 C109.490171,8.51307692 108.661239,8.73683761 107.878077,9.18435897 C107.094915,9.63188034 106.464316,10.2828205 105.986282,11.1371795 C105.508248,11.9915385 105.269231,12.9984615 105.269231,14.1579487 C105.269231,15.3174359 105.508248,16.3294444 105.986282,17.1939744 C106.464316,18.0585043 107.094915,18.7145299 107.878077,19.1620513 C108.661239,19.6095726 109.490171,19.8333333 110.364872,19.8333333 C111.259915,19.8333333 112.099017,19.6044872 112.882179,19.1467949 C113.665342,18.6891026 114.29594,18.022906 114.773974,17.1482051 C115.252009,16.2735043 115.491026,15.2564103 115.491026,14.0969231 Z" id="Shape"></path>
                        <path d="M137.704359,5.76692308 L137.704359,22.5794872 L134.225897,22.5794872 L134.225897,20.5961538 C133.676667,21.2877778 132.959615,21.8319231 132.074744,22.2285897 C131.189872,22.6252564 130.24906,22.8235897 129.252308,22.8235897 C127.930085,22.8235897 126.745171,22.5489744 125.697564,21.9997436 C124.649957,21.4505128 123.826111,20.6368376 123.226026,19.5587179 C122.62594,18.4805983 122.325897,17.1787179 122.325897,15.6530769 L122.325897,5.76692308 L125.773846,5.76692308 L125.773846,15.134359 C125.773846,16.6396581 126.150171,17.7940598 126.902821,18.5975641 C127.65547,19.4010684 128.682735,19.8028205 129.984615,19.8028205 C131.286496,19.8028205 132.318846,19.4010684 133.081667,18.5975641 C133.844487,17.7940598 134.225897,16.6396581 134.225897,15.134359 L134.225897,5.76692308 L137.704359,5.76692308 Z" id="Path"></path>
                        <polygon id="Path" points="149.482308 14.0664103 154.91359 22.5794872 150.977436 22.5794872 147.34641 16.8735897 143.928974 22.5794872 140.297949 22.5794872 145.729231 14.3105128 140.297949 5.76692308 144.234103 5.76692308 147.865128 11.4728205 151.282564 5.76692308 154.91359 5.76692308"></polygon>
                    </g>
                    <path d="M18,0 L18,15.692 L10.8974359,15.6923077 C10.220356,15.6923077 9.66346197,16.2068843 9.59649506,16.8662961 L9.58974359,17 C9.58974359,17.6770799 10.1043202,18.2339739 10.763732,18.3009408 L10.8974359,18.3076923 L18,18.307 L18,34 L8,34 C3.581722,34 1.47519377e-14,30.418278 1.42108547e-14,26 L1.42108547e-14,8 C1.36697717e-14,3.581722 3.581722,8.11624501e-16 8,0 L18,0 Z M21,18.307 L34,18.307 L34,26 C34,30.418278 30.418278,34 26,34 L21,34 L21,18.307 Z M26,0 C30.418278,-8.11624501e-16 34,3.581722 34,8 L34,15.692 L21,15.692 L21,0 L26,0 Z" id="Combined-Shape"></path>
                </g>
            </g>
        </g>
    </g>
</svg>