<?xml version="1.0" encoding="UTF-8"?>
<svg width="196px" height="51px" viewBox="0 0 196 51" version="1.1" xmlns="http://www.w3.org/2000/svg" xmlns:xlink="http://www.w3.org/1999/xlink">
    <title>Combined Shape</title>
    <g id="Page-1" stroke="none" stroke-width="1" fill="none" fill-rule="evenodd">
        <g id="Desktop-HD-Copy-8" transform="translate(-1150.000000, -1527.000000)" fill="#151E30" fill-rule="nonzero">
            <path d="M1181.5,1527 C1192.26955,1527 1201,1535.73045 1201,1546.5 L1201,1558.5 C1201,1569.26955 1192.26955,1578 1181.5,1578 L1169.5,1578 C1158.73045,1578 1150,1569.26955 1150,1558.5 L1150,1546.5 C1150,1535.73045 1158.73045,1527 1169.5,1527 L1181.5,1527 Z M1181.51815,1554.54785 L1172.2048,1562.53192 L1176.39692,1562.53192 L1181.51815,1557.84462 L1186.9135,1562.53192 L1190.8315,1562.53192 L1181.51815,1554.54785 Z M1162.19045,1554.6821 L1159.08551,1554.6821 L1159.08551,1562.25375 L1166.51044,1562.25375 C1169.10242,1562.25375 1171.2579,1561.34026 1172.97689,1559.51328 C1174.27302,1558.13571 1175.0805,1556.52533 1175.39934,1554.6821 L1175.39934,1554.6821 L1172.34398,1554.6821 C1172.08591,1555.73823 1171.59489,1556.6601 1170.87091,1557.44779 C1169.74592,1558.67178 1168.29243,1559.28378 1166.51044,1559.28378 L1166.51044,1559.28378 L1162.19048,1559.28378 L1162.19045,1554.6821 Z M1176.39692,1543.35392 L1172.2048,1543.35392 L1181.51815,1551.33799 L1190.8315,1543.35392 L1186.9135,1543.35392 L1181.51815,1548.04122 L1176.39692,1543.35392 Z M1166.51044,1543.35392 L1159.08551,1543.35392 L1159.08551,1551.0553 L1162.19045,1551.0553 L1162.19048,1546.32389 L1166.51044,1546.32389 C1168.29243,1546.32389 1169.74592,1546.93139 1170.87091,1548.14638 C1171.62741,1548.9634 1172.12956,1549.93304 1172.37735,1551.0553 L1172.37735,1551.0553 L1175.42253,1551.0553 C1175.12092,1549.14437 1174.30571,1547.48625 1172.97689,1546.08089 C1171.2579,1544.26291 1169.10242,1543.35392 1166.51044,1543.35392 L1166.51044,1543.35392 Z M1242.19566,1549.91352 C1242.2228,1552.22001 1241.84969,1554.37725 1241.07634,1556.38525 C1240.30299,1558.39324 1239.23115,1560.14346 1237.86083,1561.63589 C1236.49051,1563.12832 1234.85561,1564.29513 1232.95616,1565.13632 C1231.0567,1565.97751 1229.008,1566.37097 1226.81005,1566.3167 L1218.01828,1566.3167 L1213.54098,1566.3167 L1217.77406,1536.19672 L1224.36789,1536.19672 L1228.80448,1536.19672 C1230.73108,1536.19672 1232.50843,1536.52913 1234.13653,1537.19394 C1235.76464,1537.85875 1237.17567,1538.78812 1238.36961,1539.98207 C1239.56356,1541.17601 1240.49972,1542.62096 1241.1781,1544.3169 C1241.85647,1546.01285 1242.19566,1547.87839 1242.19566,1549.91352 Z M1235.1948,1549.91352 C1235.1948,1548.77385 1235.03199,1547.74271 1234.70637,1546.82012 C1234.38075,1545.89752 1233.90589,1545.10382 1233.28178,1544.43901 C1232.65767,1543.7742 1231.91146,1543.25863 1231.04313,1542.89231 C1230.17481,1542.52599 1229.18438,1542.34282 1228.07184,1542.34282 L1223.51314,1542.34282 L1220.98957,1560.252 L1225.54827,1560.252 C1226.98643,1560.252 1228.2957,1559.99422 1229.47608,1559.47865 C1230.65646,1558.96308 1231.67402,1558.244 1232.52878,1557.32141 C1233.38353,1556.39881 1234.04156,1555.30662 1234.50286,1554.04484 C1234.96416,1552.78306 1235.1948,1551.40595 1235.1948,1549.91352 Z M1255.54614,1545.31412 C1256.93003,1545.31412 1258.22573,1545.5312 1259.43324,1545.96536 C1260.64076,1546.39952 1261.67867,1547.01006 1262.547,1547.79698 C1263.41532,1548.5839 1264.10048,1549.5472 1264.60248,1550.68687 C1265.10448,1551.82655 1265.35548,1553.11546 1265.35548,1554.55363 C1265.35548,1555.04206 1265.31478,1555.57119 1265.23337,1556.14103 L1264.94846,1558.21687 L1250.3769,1558.21687 C1250.3769,1559.248 1250.73644,1560.04849 1251.45552,1560.61832 C1252.1746,1561.18816 1253.10398,1561.47308 1254.24365,1561.47308 C1255.24765,1561.47308 1256.13633,1561.24921 1256.90968,1560.80148 C1257.68303,1560.35376 1258.25965,1559.75 1258.63954,1558.99022 L1264.053,1561.22886 C1263.10327,1563.01978 1261.77365,1564.40367 1260.06413,1565.38054 C1258.35462,1566.3574 1256.40089,1566.84583 1254.20295,1566.84583 C1252.79192,1566.84583 1251.48944,1566.64232 1250.29549,1566.23529 C1249.10155,1565.82826 1248.07041,1565.21772 1247.20209,1564.40367 C1246.33377,1563.58962 1245.64861,1562.57883 1245.14661,1561.37132 C1244.64461,1560.16381 1244.39361,1558.77314 1244.39361,1557.1993 C1244.39361,1555.57119 1244.64461,1554.03806 1245.14661,1552.5999 C1245.64861,1551.16174 1246.37447,1549.89995 1247.3242,1548.81455 C1248.27393,1547.72914 1249.44074,1546.87439 1250.82463,1546.25028 C1252.20852,1545.62617 1253.78236,1545.31412 1255.54614,1545.31412 Z M1259.12797,1554.02449 C1259.18224,1552.99336 1258.86341,1552.14538 1258.17146,1551.48057 C1257.47952,1550.81576 1256.523,1550.48336 1255.30192,1550.48336 C1254.16225,1550.48336 1253.19217,1550.78863 1252.39168,1551.39917 C1251.5912,1552.00971 1251.06884,1552.88482 1250.82463,1554.02449 L1259.12797,1554.02449 Z M1265.559,1566.3167 L1274.26937,1556.46665 L1268.08256,1545.96536 L1275.28693,1545.96536 C1275.85677,1546.94223 1276.40626,1547.91231 1276.93539,1548.8756 C1277.46453,1549.8389 1277.97331,1550.79541 1278.46174,1551.74514 L1283.02044,1545.96536 L1290.63184,1545.96536 L1281.55514,1556.34454 L1287.53844,1566.3167 L1280.37477,1566.3167 C1280.10342,1565.88253 1279.82528,1565.3941 1279.54036,1564.8514 C1279.25544,1564.3087 1278.95017,1563.72529 1278.62455,1563.10119 L1277.40347,1560.86254 L1273.00758,1566.3167 L1265.559,1566.3167 Z M1304.67426,1551.33811 L1300.84821,1551.33811 L1298.73167,1566.3167 L1292.50416,1566.3167 L1294.6207,1551.33811 L1290.79465,1551.33811 L1291.5273,1545.96536 L1295.35335,1545.96536 L1296.24881,1539.65645 L1302.47632,1539.65645 L1301.58086,1545.96536 L1305.40691,1545.96536 L1304.67426,1551.33811 Z M1317.16998,1545.31412 C1318.55387,1545.31412 1319.84957,1545.5312 1321.05708,1545.96536 C1322.2646,1546.39952 1323.30252,1547.01006 1324.17084,1547.79698 C1325.03916,1548.5839 1325.72432,1549.5472 1326.22632,1550.68687 C1326.72832,1551.82655 1326.97932,1553.11546 1326.97932,1554.55363 C1326.97932,1555.04206 1326.93862,1555.57119 1326.85722,1556.14103 L1326.5723,1558.21687 L1312.00074,1558.21687 C1312.00074,1559.248 1312.36028,1560.04849 1313.07936,1560.61832 C1313.79844,1561.18816 1314.72782,1561.47308 1315.86749,1561.47308 C1316.87149,1561.47308 1317.76017,1561.24921 1318.53352,1560.80148 C1319.30687,1560.35376 1319.88349,1559.75 1320.26338,1558.99022 L1325.67684,1561.22886 C1324.72711,1563.01978 1323.39749,1564.40367 1321.68798,1565.38054 C1319.97846,1566.3574 1318.02474,1566.84583 1315.82679,1566.84583 C1314.41577,1566.84583 1313.11328,1566.64232 1311.91934,1566.23529 C1310.72539,1565.82826 1309.69426,1565.21772 1308.82593,1564.40367 C1307.95761,1563.58962 1307.27245,1562.57883 1306.77045,1561.37132 C1306.26845,1560.16381 1306.01745,1558.77314 1306.01745,1557.1993 C1306.01745,1555.57119 1306.26845,1554.03806 1306.77045,1552.5999 C1307.27245,1551.16174 1307.99831,1549.89995 1308.94804,1548.81455 C1309.89777,1547.72914 1311.06458,1546.87439 1312.44847,1546.25028 C1313.83236,1545.62617 1315.4062,1545.31412 1317.16998,1545.31412 Z M1320.75181,1554.02449 C1320.80609,1552.99336 1320.48725,1552.14538 1319.7953,1551.48057 C1319.10336,1550.81576 1318.14684,1550.48336 1316.92576,1550.48336 C1315.78609,1550.48336 1314.81601,1550.78863 1314.01552,1551.39917 C1313.21504,1552.00971 1312.69269,1552.88482 1312.44847,1554.02449 L1320.75181,1554.02449 Z M1342.93477,1545.59904 C1344.08349,1545.68044 1344.96538,1545.80255 1345.58044,1545.96536 L1344.76639,1551.74514 C1344.16942,1551.60947 1343.57244,1551.54163 1342.97547,1551.54163 C1341.26596,1551.54163 1339.85493,1552.07755 1338.74239,1553.14938 C1337.62986,1554.22122 1336.95148,1555.6526 1336.70726,1557.44351 L1335.44548,1566.3167 L1329.17727,1566.3167 C1329.47268,1556.96797 1330.8411,1551.12845 1333.28253,1548.79815 C1335.72396,1546.46784 1338.94137,1545.40147 1342.93477,1545.59904 Z M1262.3836,1572.56792 C1262.38787,1572.93118 1262.32911,1573.27094 1262.20731,1573.58719 C1262.08551,1573.90344 1261.9167,1574.17909 1261.70088,1574.41414 C1261.48506,1574.64919 1261.22758,1574.83295 1260.92842,1574.96544 C1260.62926,1575.09792 1260.3066,1575.15989 1259.96044,1575.15134 L1258.57578,1575.15134 L1257.87062,1575.15134 L1258.53731,1570.40759 L1259.57581,1570.40759 L1260.27455,1570.40759 C1260.57798,1570.40759 1260.8579,1570.45994 1261.11432,1570.56465 C1261.37074,1570.66935 1261.59297,1570.81572 1261.78101,1571.00376 C1261.96905,1571.1918 1262.11649,1571.41938 1262.22334,1571.68648 C1262.33018,1571.95358 1262.3836,1572.2474 1262.3836,1572.56792 Z M1261.281,1572.56792 C1261.281,1572.38843 1261.25535,1572.22603 1261.20407,1572.08072 C1261.15279,1571.93542 1261.078,1571.81042 1260.9797,1571.70571 C1260.88141,1571.60101 1260.76388,1571.51981 1260.62713,1571.46211 C1260.49037,1571.40442 1260.33438,1571.37557 1260.15916,1571.37557 L1259.44119,1571.37557 L1259.04374,1574.19618 L1259.76171,1574.19618 C1259.98822,1574.19618 1260.19442,1574.15558 1260.38032,1574.07438 C1260.56623,1573.99318 1260.72649,1573.87993 1260.86111,1573.73463 C1260.99573,1573.58932 1261.09937,1573.41731 1261.17202,1573.21858 C1261.24467,1573.01986 1261.281,1572.80297 1261.281,1572.56792 Z M1262.77464,1575.15134 L1263.44133,1570.40759 L1264.47982,1570.40759 L1263.81313,1575.15134 L1262.77464,1575.15134 Z M1267.07607,1572.34355 L1269.30691,1572.34355 L1268.90946,1575.15134 L1268.01841,1575.15134 L1268.02482,1574.818 C1267.86669,1574.95903 1267.67758,1575.06159 1267.45749,1575.1257 C1267.2374,1575.1898 1267.01837,1575.22186 1266.80042,1575.22186 C1266.50553,1575.22186 1266.23095,1575.17164 1265.97667,1575.07121 C1265.72239,1574.97078 1265.50229,1574.82761 1265.31639,1574.64171 C1265.13049,1574.45581 1264.98411,1574.23037 1264.87727,1573.9654 C1264.77043,1573.70044 1264.71701,1573.40128 1264.71701,1573.06794 C1264.71274,1572.67904 1264.77257,1572.31577 1264.8965,1571.97816 C1265.02044,1571.64054 1265.19352,1571.34779 1265.41575,1571.09992 C1265.63798,1570.85205 1265.90295,1570.6576 1266.21065,1570.51657 C1266.51835,1570.37554 1266.85384,1570.3093 1267.2171,1570.31784 C1267.77267,1570.31784 1268.23422,1570.43964 1268.60176,1570.68324 C1268.96929,1570.92684 1269.21716,1571.25377 1269.34537,1571.66404 L1268.40303,1572.02303 C1268.31756,1571.79225 1268.17119,1571.61276 1267.96392,1571.48455 C1267.75664,1571.35634 1267.51839,1571.29224 1267.24915,1571.29224 C1267.02692,1571.29224 1266.82499,1571.3339 1266.64336,1571.41724 C1266.46173,1571.50058 1266.30681,1571.61596 1266.1786,1571.76341 C1266.05039,1571.91085 1265.95103,1572.0882 1265.88051,1572.29548 C1265.81,1572.50275 1265.77474,1572.73246 1265.77474,1572.9846 C1265.77474,1573.20683 1265.81,1573.39808 1265.88051,1573.55834 C1265.95103,1573.7186 1266.04398,1573.85002 1266.15937,1573.95258 C1266.27476,1574.05515 1266.40297,1574.13101 1266.544,1574.18015 C1266.68503,1574.2293 1266.82606,1574.25388 1266.96709,1574.25388 C1267.25342,1574.25388 1267.51411,1574.17695 1267.74917,1574.0231 C1267.98849,1573.86925 1268.14234,1573.61283 1268.21072,1573.25384 L1266.94786,1573.25384 L1267.07607,1572.34355 Z M1269.77488,1575.15134 L1270.44157,1570.40759 L1271.48006,1570.40759 L1270.81337,1575.15134 L1269.77488,1575.15134 Z M1275.58277,1570.40759 L1275.44174,1571.3948 L1274.15323,1571.3948 L1273.62757,1575.15134 L1272.58907,1575.15134 L1273.11473,1571.3948 L1271.81982,1571.3948 L1271.96085,1570.40759 L1275.58277,1570.40759 Z M1278.31363,1570.40759 L1279.3393,1575.15134 L1278.24311,1575.15134 L1278.0508,1574.15131 L1276.62767,1574.15131 L1276.1533,1575.15134 L1275.10198,1575.15134 L1277.3777,1570.40759 L1278.31363,1570.40759 Z M1277.64694,1572.0038 L1277.05718,1573.25384 L1277.88413,1573.25384 L1277.64694,1572.0038 Z M1282.93558,1574.22182 L1282.80737,1575.15134 L1280.06369,1575.15134 L1279.89702,1575.15134 L1280.56371,1570.40759 L1281.61502,1570.40759 L1281.07654,1574.22182 L1282.93558,1574.22182 Z M1289.05117,1570.40759 L1288.91014,1571.3948 L1287.62164,1571.3948 L1287.09598,1575.15134 L1286.05748,1575.15134 L1286.58314,1571.3948 L1285.28823,1571.3948 L1285.42926,1570.40759 L1289.05117,1570.40759 Z M1292.6795,1570.40759 L1292.53206,1571.38839 L1290.57046,1571.38839 L1290.44225,1572.28586 L1292.19231,1572.29227 L1292.05128,1573.21538 L1290.31404,1573.20897 L1290.17301,1574.17054 L1292.14743,1574.17695 L1292.0064,1575.15134 L1288.99989,1575.15134 L1289.66658,1570.40759 L1292.6795,1570.40759 Z M1296.53861,1572.15124 C1296.46168,1571.87773 1296.31852,1571.67152 1296.10911,1571.53263 C1295.8997,1571.39373 1295.66678,1571.32429 1295.41037,1571.32429 C1295.2095,1571.32429 1295.0236,1571.36702 1294.85265,1571.4525 C1294.68171,1571.53797 1294.53534,1571.65443 1294.41354,1571.80187 C1294.29174,1571.94931 1294.19665,1572.12132 1294.12827,1572.31791 C1294.05989,1572.5145 1294.0257,1572.72605 1294.0257,1572.95255 C1294.0257,1573.35427 1294.12827,1573.66411 1294.33341,1573.88207 C1294.53854,1574.10002 1294.81633,1574.209 1295.16677,1574.209 C1295.41037,1574.209 1295.63473,1574.14703 1295.83987,1574.0231 C1296.045,1573.89916 1296.21381,1573.69616 1296.34629,1573.4141 L1297.30787,1573.82437 C1297.23949,1574.01241 1297.13478,1574.19191 1296.99375,1574.36285 C1296.85272,1574.5338 1296.68605,1574.68338 1296.49374,1574.81159 C1296.30142,1574.9398 1296.08774,1575.0413 1295.85269,1575.11608 C1295.61764,1575.19087 1295.36763,1575.22827 1295.10266,1575.22827 C1294.83342,1575.22827 1294.56739,1575.18553 1294.30456,1575.10006 C1294.04173,1575.01458 1293.80668,1574.88103 1293.59941,1574.6994 C1293.39213,1574.51777 1293.22546,1574.28379 1293.09939,1573.99746 C1292.97332,1573.71112 1292.91242,1573.36709 1292.91669,1572.96537 C1292.91242,1572.61066 1292.97011,1572.27197 1293.08977,1571.94931 C1293.20944,1571.62665 1293.37824,1571.34352 1293.5962,1571.09992 C1293.81416,1570.85632 1294.07699,1570.66294 1294.38469,1570.51977 C1294.69239,1570.37661 1295.03215,1570.3093 1295.40395,1570.31784 C1295.67319,1570.31784 1295.9232,1570.35417 1296.15398,1570.42682 C1296.38476,1570.49947 1296.59096,1570.59884 1296.77259,1570.72491 C1296.95422,1570.85098 1297.107,1570.99842 1297.23094,1571.16723 C1297.35488,1571.33604 1297.44035,1571.51874 1297.48736,1571.71533 L1296.53861,1572.15124 Z M1298.44252,1570.40759 L1299.48102,1570.40759 L1299.21819,1572.29227 L1300.98748,1572.29868 L1301.25031,1570.40759 L1302.29522,1570.40759 L1301.62853,1575.15134 L1300.58362,1575.15134 L1300.85286,1573.22179 L1299.08998,1573.20897 L1298.81433,1575.15134 L1297.77583,1575.15134 L1298.44252,1570.40759 Z M1303.27602,1570.40759 L1304.30169,1570.40759 L1305.86585,1573.49744 L1306.30176,1570.40759 L1307.32744,1570.40759 L1306.66075,1575.15134 L1305.63507,1575.15134 L1304.07092,1572.0679 L1303.635,1575.15134 L1302.60933,1575.15134 L1303.27602,1570.40759 Z M1310.18651,1570.31784 C1310.50703,1570.31784 1310.79871,1570.3702 1311.06154,1570.4749 C1311.32437,1570.5796 1311.54874,1570.72598 1311.73464,1570.91402 C1311.92054,1571.10206 1312.06371,1571.32749 1312.16414,1571.59032 C1312.26457,1571.85315 1312.31479,1572.14269 1312.31479,1572.45894 C1312.32334,1572.87776 1312.25603,1573.26025 1312.11286,1573.60642 C1311.96969,1573.95258 1311.77844,1574.24853 1311.53912,1574.49427 C1311.2998,1574.74 1311.02415,1574.92911 1310.71217,1575.06159 C1310.40019,1575.19408 1310.07753,1575.25605 1309.74419,1575.2475 C1309.42794,1575.2475 1309.1384,1575.19515 1308.87557,1575.09044 C1308.61274,1574.98574 1308.38837,1574.83937 1308.20247,1574.65132 C1308.01656,1574.46328 1307.87233,1574.23785 1307.76976,1573.97502 C1307.66719,1573.71219 1307.61591,1573.42051 1307.61591,1573.09999 C1307.61164,1572.68117 1307.68001,1572.29975 1307.82104,1571.95572 C1307.96208,1571.61169 1308.15225,1571.31788 1308.39158,1571.07428 C1308.6309,1570.83068 1308.90655,1570.64264 1309.21853,1570.51016 C1309.5305,1570.37767 1309.85317,1570.31357 1310.18651,1570.31784 Z M1309.79547,1574.22182 C1309.97069,1574.22182 1310.14271,1574.18229 1310.31151,1574.10323 C1310.48032,1574.02417 1310.63097,1573.91091 1310.76345,1573.76347 C1310.89594,1573.61603 1311.00278,1573.43547 1311.08398,1573.22179 C1311.16518,1573.00811 1311.20578,1572.76664 1311.20578,1572.4974 C1311.20578,1572.14697 1311.11069,1571.8649 1310.92051,1571.65122 C1310.73033,1571.43754 1310.46643,1571.3307 1310.12882,1571.3307 C1309.9536,1571.3307 1309.78158,1571.36916 1309.61277,1571.44609 C1309.44396,1571.52301 1309.29439,1571.6352 1309.16404,1571.78264 C1309.03369,1571.93008 1308.92792,1572.10957 1308.84672,1572.32112 C1308.76552,1572.53266 1308.72492,1572.77306 1308.72492,1573.0423 C1308.72492,1573.40556 1308.82001,1573.69296 1309.01019,1573.9045 C1309.20037,1574.11605 1309.46213,1574.22182 1309.79547,1574.22182 Z M1315.71234,1574.22182 L1315.58413,1575.15134 L1312.84045,1575.15134 L1312.67377,1575.15134 L1313.34046,1570.40759 L1314.39178,1570.40759 L1313.8533,1574.22182 L1315.71234,1574.22182 Z M1318.84706,1570.31784 C1319.16759,1570.31784 1319.45926,1570.3702 1319.72209,1570.4749 C1319.98492,1570.5796 1320.20929,1570.72598 1320.39519,1570.91402 C1320.5811,1571.10206 1320.72426,1571.32749 1320.82469,1571.59032 C1320.92512,1571.85315 1320.97534,1572.14269 1320.97534,1572.45894 C1320.98389,1572.87776 1320.91658,1573.26025 1320.77341,1573.60642 C1320.63024,1573.95258 1320.439,1574.24853 1320.19967,1574.49427 C1319.96035,1574.74 1319.6847,1574.92911 1319.37272,1575.06159 C1319.06074,1575.19408 1318.73808,1575.25605 1318.40474,1575.2475 C1318.08849,1575.2475 1317.79895,1575.19515 1317.53612,1575.09044 C1317.27329,1574.98574 1317.04892,1574.83937 1316.86302,1574.65132 C1316.67712,1574.46328 1316.53288,1574.23785 1316.43031,1573.97502 C1316.32775,1573.71219 1316.27646,1573.42051 1316.27646,1573.09999 C1316.27219,1572.68117 1316.34057,1572.29975 1316.4816,1571.95572 C1316.62263,1571.61169 1316.8128,1571.31788 1317.05213,1571.07428 C1317.29145,1570.83068 1317.5671,1570.64264 1317.87908,1570.51016 C1318.19106,1570.37767 1318.51372,1570.31357 1318.84706,1570.31784 Z M1318.45602,1574.22182 C1318.63124,1574.22182 1318.80326,1574.18229 1318.97207,1574.10323 C1319.14088,1574.02417 1319.29152,1573.91091 1319.424,1573.76347 C1319.55649,1573.61603 1319.66333,1573.43547 1319.74453,1573.22179 C1319.82573,1573.00811 1319.86633,1572.76664 1319.86633,1572.4974 C1319.86633,1572.14697 1319.77124,1571.8649 1319.58106,1571.65122 C1319.39088,1571.43754 1319.12699,1571.3307 1318.78937,1571.3307 C1318.61415,1571.3307 1318.44213,1571.36916 1318.27332,1571.44609 C1318.10452,1571.52301 1317.95494,1571.6352 1317.82459,1571.78264 C1317.69424,1571.93008 1317.58847,1572.10957 1317.50727,1572.32112 C1317.42607,1572.53266 1317.38547,1572.77306 1317.38547,1573.0423 C1317.38547,1573.40556 1317.48056,1573.69296 1317.67074,1573.9045 C1317.86092,1574.11605 1318.12268,1574.22182 1318.45602,1574.22182 Z M1323.74466,1572.34355 L1325.97551,1572.34355 L1325.57806,1575.15134 L1324.687,1575.15134 L1324.69342,1574.818 C1324.53529,1574.95903 1324.34618,1575.06159 1324.12609,1575.1257 C1323.906,1575.1898 1323.68697,1575.22186 1323.46901,1575.22186 C1323.17413,1575.22186 1322.89955,1575.17164 1322.64527,1575.07121 C1322.39099,1574.97078 1322.17089,1574.82761 1321.98499,1574.64171 C1321.79909,1574.45581 1321.65271,1574.23037 1321.54587,1573.9654 C1321.43903,1573.70044 1321.38561,1573.40128 1321.38561,1573.06794 C1321.38134,1572.67904 1321.44117,1572.31577 1321.5651,1571.97816 C1321.68904,1571.64054 1321.86212,1571.34779 1322.08435,1571.09992 C1322.30658,1570.85205 1322.57155,1570.6576 1322.87925,1570.51657 C1323.18695,1570.37554 1323.52243,1570.3093 1323.8857,1570.31784 C1324.44127,1570.31784 1324.90282,1570.43964 1325.27036,1570.68324 C1325.63789,1570.92684 1325.88576,1571.25377 1326.01397,1571.66404 L1325.07163,1572.02303 C1324.98616,1571.79225 1324.83979,1571.61276 1324.63252,1571.48455 C1324.42524,1571.35634 1324.18699,1571.29224 1323.91775,1571.29224 C1323.69552,1571.29224 1323.49359,1571.3339 1323.31196,1571.41724 C1323.13033,1571.50058 1322.97541,1571.61596 1322.8472,1571.76341 C1322.71899,1571.91085 1322.61963,1572.0882 1322.54911,1572.29548 C1322.4786,1572.50275 1322.44334,1572.73246 1322.44334,1572.9846 C1322.44334,1573.20683 1322.4786,1573.39808 1322.54911,1573.55834 C1322.61963,1573.7186 1322.71258,1573.85002 1322.82797,1573.95258 C1322.94336,1574.05515 1323.07156,1574.13101 1323.2126,1574.18015 C1323.35363,1574.2293 1323.49466,1574.25388 1323.63569,1574.25388 C1323.92202,1574.25388 1324.18271,1574.17695 1324.41776,1574.0231 C1324.65709,1573.86925 1324.81094,1573.61283 1324.87932,1573.25384 L1323.61646,1573.25384 L1323.74466,1572.34355 Z M1326.44347,1575.15134 L1327.11016,1570.40759 L1328.14866,1570.40759 L1327.48197,1575.15134 L1326.44347,1575.15134 Z M1329.90513,1571.38839 L1329.77692,1572.28586 L1331.52698,1572.29227 L1331.38595,1573.21538 L1329.64871,1573.20897 L1329.50768,1574.17054 L1331.48211,1574.17695 L1331.34108,1575.15134 L1328.33456,1575.15134 L1329.00125,1570.40759 L1332.01418,1570.40759 L1331.86674,1571.38839 L1329.90513,1571.38839 Z M1334.27708,1570.31784 C1334.75145,1570.31784 1335.12539,1570.42789 1335.39891,1570.64798 C1335.67242,1570.86808 1335.81986,1571.15975 1335.84123,1571.52301 L1334.82197,1571.77943 C1334.81342,1571.60849 1334.75038,1571.48134 1334.63286,1571.39801 C1334.51533,1571.31467 1334.35827,1571.273 1334.16169,1571.273 C1333.94373,1571.273 1333.77919,1571.32001 1333.66808,1571.41403 C1333.55697,1571.50805 1333.50141,1571.62772 1333.50141,1571.77302 C1333.50141,1571.99098 1333.63175,1572.13414 1333.89245,1572.20252 L1334.60401,1572.40766 C1334.963,1572.51023 1335.23117,1572.67156 1335.40852,1572.89165 C1335.58588,1573.11174 1335.67456,1573.38419 1335.67456,1573.70898 C1335.67456,1573.93121 1335.62862,1574.13528 1335.53673,1574.32119 C1335.44485,1574.50709 1335.31557,1574.66735 1335.1489,1574.80197 C1334.98223,1574.93659 1334.78137,1575.04236 1334.54632,1575.11929 C1334.31126,1575.19621 1334.05057,1575.23468 1333.76424,1575.23468 C1333.25995,1575.23468 1332.85822,1575.12143 1332.55907,1574.89492 C1332.25991,1574.66842 1332.09324,1574.35644 1332.05905,1573.95899 L1333.07191,1573.70898 C1333.07191,1573.89275 1333.14456,1574.03271 1333.28986,1574.12887 C1333.43517,1574.22503 1333.62962,1574.27311 1333.87322,1574.27311 C1334.10399,1574.27311 1334.28562,1574.22823 1334.41811,1574.13849 C1334.55059,1574.04874 1334.61683,1573.93121 1334.61683,1573.78591 C1334.61683,1573.58932 1334.48862,1573.45257 1334.2322,1573.37564 L1333.51423,1573.15768 C1333.16379,1573.05084 1332.89775,1572.88738 1332.71612,1572.66728 C1332.53449,1572.44719 1332.44368,1572.1897 1332.44368,1571.89482 C1332.44368,1571.66404 1332.48748,1571.4525 1332.57509,1571.26018 C1332.6627,1571.06787 1332.78664,1570.90227 1332.9469,1570.76337 C1333.10716,1570.62448 1333.30055,1570.5155 1333.52705,1570.43644 C1333.75355,1570.35737 1334.00356,1570.31784 1334.27708,1570.31784 Z" id="Combined-Shape"></path>
        </g>
    </g>
</svg>