<?xml version="1.0" encoding="UTF-8"?>
<svg width="234px" height="61px" viewBox="0 0 234 61" version="1.1" xmlns="http://www.w3.org/2000/svg" xmlns:xlink="http://www.w3.org/1999/xlink">
    <title>Group 2</title>
    <g id="Page-1" stroke="none" stroke-width="1" fill="none" fill-rule="evenodd">
        <g id="Desktop-HD-Copy-4" transform="translate(-105.000000, -40.000000)" fill-rule="nonzero">
            <g id="Group-2" transform="translate(105.000000, 40.000000)">
                <g id="Group">
                    <rect id="Rectangle" fill="#151E30" x="0" y="0" width="61" height="61" rx="19.5"></rect>
                    <path d="M37.6981753,32.9493883 L48.8376722,42.4989644 L44.1514401,42.4989644 L37.6981753,36.892585 L31.5727909,42.4989644 L26.5586784,42.4989644 L37.6981753,32.9493883 Z M14.5807387,33.1099596 L14.5807738,38.6139296 L19.7477866,38.6139296 C21.8791793,38.6139296 23.6176638,37.8819362 24.9632401,36.4179492 C25.8291775,35.4758093 26.4164806,34.3731759 26.7251492,33.1099596 L30.3796014,33.1099596 C29.9982502,35.3146121 29.0324361,37.2407504 27.4821587,38.8884272 C25.4261184,41.0736431 22.8479942,42.1662509 19.7477866,42.1662509 L10.8669834,42.1662509 L10.8669834,33.1099596 L14.5807387,33.1099596 Z M31.5727909,19.5605701 L37.6981753,25.1669495 L44.1514401,19.5605701 L48.8376722,19.5605701 L37.6981753,29.1101462 L26.5586784,19.5605701 L31.5727909,19.5605701 Z M19.7477866,19.5605701 C22.8479942,19.5605701 25.4261184,20.6477957 27.4821587,22.8222469 C29.071534,24.5031568 30.0465941,26.4863997 30.407339,28.7720198 L26.7650623,28.7720198 C26.4686863,27.4297158 25.868079,26.2699509 24.9632401,25.2927249 C23.6176638,23.8395026 21.8791793,23.1128913 19.7477866,23.1128913 L14.5807738,23.1128913 L14.5807387,28.7720198 L10.8669834,28.7720198 L10.8669834,19.5605701 L19.7477866,19.5605701 Z" id="Combined-Shape" fill="#FFCB00"></path>
                </g>
                <g transform="translate(76.000000, 11.000000)" id="Combined-Shape">
                    <path d="M34.2732438,16.4063681 C34.3056995,19.1651046 33.8594333,21.7453346 32.9344452,24.1470581 C32.0094571,26.5487817 30.727456,28.6421758 29.088442,30.4272406 C27.449428,32.2123054 25.4939707,33.6079015 23.22207,34.6140289 C20.9501694,35.6201563 18.4997623,36.0907643 15.8708487,36.0258529 L5.35519435,36.0258529 L0,36.0258529 L5.06309284,0 L12.9498336,0 L18.2563444,0 C20.5607007,0 22.6865506,0.397582611 24.633894,1.19274783 C26.5812374,1.98791305 28.268935,3.09952158 29.6969868,4.5275734 C31.1250387,5.95562523 32.2447611,7.68389249 33.0561542,9.7123752 C33.8675473,11.7408579 34.2732438,13.9721889 34.2732438,16.4063681 Z M25.8996672,16.4063681 C25.8996672,15.0432278 25.7049329,13.8099103 25.3154642,12.7064157 C24.9259955,11.6029211 24.3580203,10.6535912 23.6115387,9.85842595 C22.8650571,9.06326073 21.9725247,8.44660199 20.9339415,8.00844973 C19.8953584,7.57029746 18.7107245,7.35122133 17.3800398,7.35122133 L11.9274783,7.35122133 L8.90909605,28.7719987 L14.3616576,28.7719987 C16.0818109,28.7719987 17.6477995,28.4636693 19.0596235,27.8470106 C20.4714475,27.2303519 21.6885371,26.3702752 22.7108924,25.2667806 C23.7332477,24.163286 24.520299,22.8569431 25.0720463,21.347752 C25.6237936,19.8385609 25.8996672,18.1914329 25.8996672,16.4063681 Z M50.2414597,10.905123 C51.8967016,10.905123 53.4464624,11.1647688 54.890742,11.6840604 C56.3350217,12.203352 57.5764531,12.9336057 58.6150363,13.8748217 C59.6536194,14.8160377 60.4731265,15.9682159 61.0735573,17.3313562 C61.6739882,18.6944966 61.9742037,20.2361435 61.9742037,21.9562968 C61.9742037,22.5404998 61.9255201,23.1733864 61.8281529,23.8549566 L61.4873678,26.3378195 L44.0586444,26.3378195 C44.0586444,27.5711369 44.4886827,28.5285808 45.3487594,29.210151 C46.2088361,29.8917212 47.3204446,30.2325063 48.683585,30.2325063 C49.8844467,30.2325063 50.9473717,29.9647465 51.8723598,29.4292271 C52.7973479,28.8937077 53.487032,28.1715678 53.9414121,27.2628076 L60.4163289,29.9404048 C59.2803786,32.0824825 57.6900482,33.7377244 55.6453376,34.9061304 C53.600627,36.0745365 51.263815,36.6587395 48.6349014,36.6587395 C46.9472038,36.6587395 45.389329,36.4153215 43.9612772,35.9284857 C42.5332254,35.4416499 41.2999079,34.7113961 40.2613248,33.7377244 C39.2227416,32.7640527 38.4032346,31.555077 37.8028037,30.1107973 C37.2023728,28.6665176 36.9021574,27.0031618 36.9021574,25.1207298 C36.9021574,23.1733864 37.2023728,21.3396381 37.8028037,19.6194847 C38.4032346,17.8993314 39.2714252,16.3901403 40.4073755,15.0919113 C41.5433258,13.7936824 42.9389219,12.7713271 44.5941638,12.0248455 C46.2494057,11.2783638 48.1318377,10.905123 50.2414597,10.905123 Z M54.5256152,21.3234102 C54.5905266,20.0900927 54.2091719,19.0758514 53.3815509,18.2806862 C52.55393,17.4855209 51.4098657,17.0879383 49.9493582,17.0879383 C48.5862178,17.0879383 47.4259257,17.4530652 46.4684818,18.183319 C45.511038,18.9135728 44.8862653,19.9602698 44.5941638,21.3234102 L54.5256152,21.3234102 Z M62.2176216,36.0258529 L72.6359088,24.2444253 L65.2360038,11.6840604 L73.8529984,11.6840604 C74.5345686,12.8524664 75.191797,14.0127585 75.8246836,15.1649367 C76.4575702,16.3171149 77.066115,17.4611791 77.650318,18.5971295 L83.1028795,11.6840604 L92.2067099,11.6840604 L81.3502705,24.0983746 L88.5067575,36.0258529 L79.9384465,36.0258529 C79.6138893,35.5065613 79.2812181,34.9223583 78.940433,34.2732438 C78.5996479,33.6241293 78.234521,32.9263313 77.8450524,32.1798497 L76.3845448,29.5022525 L71.1267176,36.0258529 L62.2176216,36.0258529 Z M109.002547,18.1102936 L104.42629,18.1102936 L101.894743,36.0258529 L94.4461548,36.0258529 L96.9777012,18.1102936 L92.4014443,18.1102936 L93.2777488,11.6840604 L97.8540058,11.6840604 L98.9250446,4.13810472 L106.373633,4.13810472 L105.302594,11.6840604 L109.878851,11.6840604 L109.002547,18.1102936 Z M123.948407,10.905123 C125.603649,10.905123 127.15341,11.1647688 128.59769,11.6840604 C130.041969,12.203352 131.283401,12.9336057 132.321984,13.8748217 C133.360567,14.8160377 134.180074,15.9682159 134.780505,17.3313562 C135.380936,18.6944966 135.681151,20.2361435 135.681151,21.9562968 C135.681151,22.5404998 135.632468,23.1733864 135.535101,23.8549566 L135.194315,26.3378195 L117.765592,26.3378195 C117.765592,27.5711369 118.19563,28.5285808 119.055707,29.210151 C119.915784,29.8917212 121.027392,30.2325063 122.390533,30.2325063 C123.591394,30.2325063 124.654319,29.9647465 125.579307,29.4292271 C126.504296,28.8937077 127.19398,28.1715678 127.64836,27.2628076 L134.123277,29.9404048 C132.987326,32.0824825 131.396996,33.7377244 129.352285,34.9061304 C127.307575,36.0745365 124.970763,36.6587395 122.341849,36.6587395 C120.654151,36.6587395 119.096277,36.4153215 117.668225,35.9284857 C116.240173,35.4416499 115.006856,34.7113961 113.968272,33.7377244 C112.929689,32.7640527 112.110182,31.555077 111.509751,30.1107973 C110.90932,28.6665176 110.609105,27.0031618 110.609105,25.1207298 C110.609105,23.1733864 110.90932,21.3396381 111.509751,19.6194847 C112.110182,17.8993314 112.978373,16.3901403 114.114323,15.0919113 C115.250273,13.7936824 116.64587,12.7713271 118.301111,12.0248455 C119.956353,11.2783638 121.838785,10.905123 123.948407,10.905123 Z M128.232563,21.3234102 C128.297474,20.0900927 127.916119,19.0758514 127.088499,18.2806862 C126.260878,17.4855209 125.116813,17.0879383 123.656306,17.0879383 C122.293165,17.0879383 121.132873,17.4530652 120.175429,18.183319 C119.217986,18.9135728 118.593213,19.9602698 118.301111,21.3234102 L128.232563,21.3234102 Z M154.765117,11.2459081 C156.139076,11.3432753 157.193887,11.4893261 157.92955,11.6840604 L156.955878,18.5971295 C156.241852,18.4348508 155.527826,18.3537115 154.8138,18.3537115 C152.76909,18.3537115 151.081392,18.9947121 149.750707,20.2767131 C148.420023,21.5587142 147.60863,23.2707536 147.316528,25.4128313 L145.807337,36.0258529 L138.310065,36.0258529 C138.663401,24.8440383 140.300141,17.859518 143.220282,15.072292 C146.140424,12.2850661 149.988702,11.0096048 154.765117,11.2459081 Z" fill="#FFCB00"></path>
                    <path d="M58.4195975,43.5028065 C58.4247092,43.9372943 58.3544244,44.3436681 58.2087432,44.721928 C58.063062,45.1001879 57.861153,45.4298875 57.6030162,45.7110266 C57.3448793,45.9921657 57.0369042,46.2119654 56.6790907,46.3704257 C56.3212773,46.5288859 55.9353499,46.6030044 55.5213087,46.5927812 L53.8651436,46.5927812 L53.0217262,46.5927812 L53.819139,40.9188823 L55.0612628,40.9188823 L55.8970128,40.9188823 C56.2599378,40.9188823 56.594749,40.9814996 56.9014462,41.1067343 C57.2081435,41.2319691 57.4739477,41.4070421 57.698859,41.6319534 C57.9237703,41.8568647 58.1001213,42.1290585 58.2279118,42.4485348 C58.3557023,42.768011 58.4195975,43.119435 58.4195975,43.5028065 Z M57.1007994,43.5028065 C57.1007994,43.2881184 57.0701297,43.0938769 57.0087903,42.9200818 C56.9474508,42.7462867 56.8579975,42.5967718 56.7404302,42.471537 C56.6228629,42.3463023 56.4822933,42.2491815 56.3187215,42.1801747 C56.1551496,42.1111678 55.9685755,42.0766644 55.758999,42.0766644 L54.9002468,42.0766644 L54.424866,45.4503339 L55.2836183,45.4503339 C55.5545342,45.4503339 55.8011699,45.4017736 56.0235254,45.3046528 C56.2458809,45.207532 56.4375667,45.072074 56.5985827,44.8982789 C56.7595988,44.7244838 56.8835556,44.5187411 56.9704531,44.2810507 C57.0573507,44.0433604 57.1007994,43.7839456 57.1007994,43.5028065 Z M58.8873108,46.5927812 L59.6847236,40.9188823 L60.9268474,40.9188823 L60.1294346,46.5927812 L58.8873108,46.5927812 Z M64.032157,43.2344464 L66.7004229,43.2344464 L66.2250422,46.5927812 L65.1592693,46.5927812 L65.1669367,46.1940747 C64.9778068,46.3627582 64.7516176,46.4854371 64.4883691,46.5621114 C64.2251206,46.6387857 63.9631501,46.6771229 63.7024574,46.6771229 C63.3497556,46.6771229 63.021334,46.6170613 62.7171926,46.4969383 C62.4130511,46.3768152 62.1498027,46.2055759 61.9274472,45.9832204 C61.7050917,45.7608649 61.5300187,45.4912269 61.4022282,45.1743064 C61.2744376,44.857386 61.2105424,44.4995725 61.2105424,44.1008661 C61.2054308,43.6357086 61.2769935,43.2012209 61.4252305,42.7974029 C61.5734675,42.3935848 61.7804881,42.0434388 62.0462924,41.7469648 C62.3120966,41.4504908 62.6290171,41.2179121 62.9970538,41.0492286 C63.3650905,40.8805451 63.7663527,40.801315 64.2008404,40.8115383 C64.8653511,40.8115383 65.4174061,40.9572194 65.8570055,41.2485818 C66.2966049,41.5399442 66.5930789,41.9309832 66.7464275,42.4216987 L65.6193152,42.8510749 C65.5170827,42.5750474 65.3420097,42.3603593 65.0940961,42.2070107 C64.8461825,42.0536621 64.5612097,41.9769878 64.2391776,41.9769878 C63.9733733,41.9769878 63.7318492,42.0268261 63.5146054,42.1265027 C63.2973615,42.2261793 63.1120652,42.364193 62.9587166,42.5405439 C62.805368,42.7168948 62.6865228,42.9290271 62.6021811,43.1769407 C62.5178394,43.4248543 62.4756685,43.6996039 62.4756685,44.0011895 C62.4756685,44.2669938 62.5178394,44.4957388 62.6021811,44.6874246 C62.6865228,44.8791103 62.7977006,45.0362927 62.9357143,45.1589716 C63.0737281,45.2816505 63.2270767,45.3723817 63.3957602,45.4311654 C63.5644437,45.489949 63.7331272,45.5193408 63.9018106,45.5193408 C64.2442892,45.5193408 64.5560981,45.4273317 64.8372372,45.2433133 C65.123488,45.059295 65.3075063,44.7525977 65.3892922,44.3232216 L63.8788083,44.3232216 L64.032157,43.2344464 Z M67.2601454,46.5927812 L68.0575582,40.9188823 L69.299682,40.9188823 L68.5022692,46.5927812 L67.2601454,46.5927812 Z M74.2068378,40.9188823 L74.0381543,42.0996666 L72.4970007,42.0996666 L71.8682713,46.5927812 L70.6261475,46.5927812 L71.2548769,42.0996666 L69.7060558,42.0996666 L69.8747393,40.9188823 L74.2068378,40.9188823 Z M77.4731633,40.9188823 L78.6999523,46.5927812 L77.3888216,46.5927812 L77.1587986,45.3966619 L75.456629,45.3966619 L74.8892391,46.5927812 L73.6317804,46.5927812 L76.3537184,40.9188823 L77.4731633,40.9188823 Z M76.6757505,42.8280726 L75.9703469,44.3232216 L76.9594454,44.3232216 L76.6757505,42.8280726 Z M83.001381,45.4810037 L82.8480324,46.5927812 L79.5663719,46.5927812 L79.3670187,46.5927812 L80.1644316,40.9188823 L81.4218902,40.9188823 L80.777826,45.4810037 L83.001381,45.4810037 Z M90.3161101,40.9188823 L90.1474266,42.0996666 L88.606273,42.0996666 L87.9775436,46.5927812 L86.7354198,46.5927812 L87.3641492,42.0996666 L85.8153281,42.0996666 L85.9840116,40.9188823 L90.3161101,40.9188823 Z M94.6558759,40.9188823 L94.479525,42.0919992 L92.1332912,42.0919992 L91.9799426,43.1654395 L94.0731512,43.173107 L93.9044677,44.277217 L91.8265939,44.2695496 L91.6579105,45.4196642 L94.0194792,45.4273317 L93.8507957,46.5927812 L90.2547706,46.5927812 L91.0521834,40.9188823 L94.6558759,40.9188823 Z M99.2716693,43.0044235 C99.1796602,42.6772798 99.0084209,42.4306441 98.7579515,42.2645164 C98.5074821,42.0983887 98.2288987,42.0153249 97.9222015,42.0153249 C97.6819553,42.0153249 97.4595998,42.0664411 97.255135,42.1686735 C97.0506702,42.2709059 96.8755972,42.4101976 96.729916,42.5865485 C96.5842348,42.7628994 96.4705013,42.9686421 96.3887153,43.2037767 C96.3069294,43.4389112 96.2660364,43.6919365 96.2660364,43.9628524 C96.2660364,44.4433447 96.3887153,44.8139372 96.6340731,45.0746298 C96.8794309,45.3353225 97.2116862,45.4656688 97.6308391,45.4656688 C97.9222015,45.4656688 98.1905616,45.3915503 98.4359194,45.2433133 C98.6812772,45.0950763 98.8831862,44.8522743 99.0416464,44.5149074 L100.191761,45.005623 C100.109975,45.2305343 99.9847404,45.4452223 99.8160569,45.6496872 C99.6473735,45.854152 99.4480203,46.0330587 99.2179973,46.1864073 C98.9879744,46.3397559 98.7323934,46.4611569 98.4512542,46.5506103 C98.1701151,46.6400636 97.8710853,46.6847903 97.5541648,46.6847903 C97.2321327,46.6847903 96.9139343,46.6336741 96.5995697,46.5314417 C96.285205,46.4292093 96.0040659,46.2694711 95.7561523,46.0522273 C95.5082387,45.8349834 95.3088855,45.5551222 95.1580927,45.2126436 C95.0072999,44.870165 94.9344593,44.4586796 94.9395709,43.9781872 C94.9344593,43.5539227 95.0034661,43.1488268 95.1465915,42.7628994 C95.2897169,42.3769721 95.4916259,42.0383272 95.7523186,41.7469648 C96.0130112,41.4556025 96.3273759,41.2243016 96.6954126,41.0530623 C97.0634492,40.881823 97.4698231,40.801315 97.9145341,40.8115383 C98.2365662,40.8115383 98.535596,40.854987 98.8116235,40.9418846 C99.087651,41.0287821 99.3342867,41.1476273 99.5515306,41.2984201 C99.7687744,41.4492129 99.9515149,41.6255638 100.099752,41.8274729 C100.247989,42.0293819 100.350221,42.2479036 100.406449,42.4830382 L99.2716693,43.0044235 Z M101.548896,40.9188823 L102.79102,40.9188823 L102.476655,43.173107 L104.592866,43.1807744 L104.907231,40.9188823 L106.157022,40.9188823 L105.359609,46.5927812 L104.109818,46.5927812 L104.43185,44.2848845 L102.323307,44.2695496 L101.993607,46.5927812 L100.751484,46.5927812 L101.548896,40.9188823 Z M107.330139,40.9188823 L108.556928,40.9188823 L110.427781,44.614584 L110.949167,40.9188823 L112.175956,40.9188823 L111.378543,46.5927812 L110.151754,46.5927812 L108.280901,42.9047469 L107.759515,46.5927812 L106.532726,46.5927812 L107.330139,40.9188823 Z M115.59563,40.8115383 C115.979001,40.8115383 116.327869,40.8741556 116.642234,40.9993903 C116.956599,41.124625 117.224959,41.299698 117.447314,41.5246093 C117.66967,41.7495206 117.840909,42.0191586 117.961032,42.3335233 C118.081155,42.647888 118.141217,42.9942003 118.141217,43.3724602 C118.15144,43.873399 118.070932,44.330889 117.899693,44.7449303 C117.728453,45.1589716 117.499708,45.5129513 117.213458,45.8068695 C116.927207,46.1007877 116.597507,46.3269769 116.224359,46.4854371 C115.851211,46.6438974 115.465283,46.7180159 115.066577,46.7077926 C114.688317,46.7077926 114.342005,46.6451753 114.02764,46.5199406 C113.713275,46.3947059 113.444915,46.2196328 113.22256,45.9947215 C113.000204,45.7698102 112.827687,45.5001722 112.705008,45.1858076 C112.582329,44.8714429 112.52099,44.5225748 112.52099,44.1392033 C112.515878,43.6382644 112.597664,43.1820523 112.766348,42.7705669 C112.935031,42.3590814 113.162498,42.0076575 113.448749,41.7162951 C113.735,41.4249327 114.064699,41.2000214 114.437848,41.0415612 C114.810996,40.8831009 115.196923,40.8064266 115.59563,40.8115383 Z M115.127916,45.4810037 C115.337493,45.4810037 115.543236,45.4337212 115.745145,45.3391562 C115.947054,45.2445912 116.127238,45.1091333 116.285698,44.9327824 C116.444159,44.7564315 116.571949,44.5404655 116.66907,44.2848845 C116.766191,44.0293034 116.814751,43.7404969 116.814751,43.4184648 C116.814751,42.9993119 116.701018,42.6619449 116.473551,42.4063639 C116.246083,42.1507829 115.930441,42.0229923 115.526623,42.0229923 C115.317046,42.0229923 115.111304,42.0689969 114.909395,42.1610061 C114.707486,42.2530153 114.528579,42.3871953 114.372674,42.5635462 C114.21677,42.7398971 114.090257,42.9545852 113.993137,43.2076104 C113.896016,43.4606356 113.847455,43.7481643 113.847455,44.0701964 C113.847455,44.5046841 113.961189,44.8484406 114.188656,45.1014658 C114.416123,45.3544911 114.72921,45.4810037 115.127916,45.4810037 Z M122.204955,45.4810037 L122.051607,46.5927812 L118.769946,46.5927812 L118.570593,46.5927812 L119.368006,40.9188823 L120.625464,40.9188823 L119.9814,45.4810037 L122.204955,45.4810037 Z M125.954329,40.8115383 C126.3377,40.8115383 126.686569,40.8741556 127.000933,40.9993903 C127.315298,41.124625 127.583658,41.299698 127.806013,41.5246093 C128.028369,41.7495206 128.199608,42.0191586 128.319731,42.3335233 C128.439854,42.647888 128.499916,42.9942003 128.499916,43.3724602 C128.510139,43.873399 128.429631,44.330889 128.258392,44.7449303 C128.087153,45.1589716 127.858408,45.5129513 127.572157,45.8068695 C127.285906,46.1007877 126.956206,46.3269769 126.583058,46.4854371 C126.20991,46.6438974 125.823983,46.7180159 125.425276,46.7077926 C125.047016,46.7077926 124.700704,46.6451753 124.386339,46.5199406 C124.071975,46.3947059 123.803614,46.2196328 123.581259,45.9947215 C123.358903,45.7698102 123.186386,45.5001722 123.063707,45.1858076 C122.941029,44.8714429 122.879689,44.5225748 122.879689,44.1392033 C122.874577,43.6382644 122.956363,43.1820523 123.125047,42.7705669 C123.29373,42.3590814 123.521197,42.0076575 123.807448,41.7162951 C124.093699,41.4249327 124.423398,41.2000214 124.796547,41.0415612 C125.169695,40.8831009 125.555622,40.8064266 125.954329,40.8115383 Z M125.486616,45.4810037 C125.696192,45.4810037 125.901935,45.4337212 126.103844,45.3391562 C126.305753,45.2445912 126.485937,45.1091333 126.644398,44.9327824 C126.802858,44.7564315 126.930648,44.5404655 127.027769,44.2848845 C127.12489,44.0293034 127.17345,43.7404969 127.17345,43.4184648 C127.17345,42.9993119 127.059717,42.6619449 126.83225,42.4063639 C126.604783,42.1507829 126.28914,42.0229923 125.885322,42.0229923 C125.675746,42.0229923 125.470003,42.0689969 125.268094,42.1610061 C125.066185,42.2530153 124.887278,42.3871953 124.731374,42.5635462 C124.575469,42.7398971 124.448957,42.9545852 124.351836,43.2076104 C124.254715,43.4606356 124.206155,43.7481643 124.206155,44.0701964 C124.206155,44.5046841 124.319888,44.8484406 124.547355,45.1014658 C124.774822,45.3544911 125.087909,45.4810037 125.486616,45.4810037 Z M131.812246,43.2344464 L134.480512,43.2344464 L134.005131,46.5927812 L132.939358,46.5927812 L132.947026,46.1940747 C132.757896,46.3627582 132.531707,46.4854371 132.268458,46.5621114 C132.00521,46.6387857 131.743239,46.6771229 131.482547,46.6771229 C131.129845,46.6771229 130.801423,46.6170613 130.497282,46.4969383 C130.19314,46.3768152 129.929892,46.2055759 129.707536,45.9832204 C129.485181,45.7608649 129.310108,45.4912269 129.182317,45.1743064 C129.054527,44.857386 128.990631,44.4995725 128.990631,44.1008661 C128.98552,43.6357086 129.057083,43.2012209 129.20532,42.7974029 C129.353557,42.3935848 129.560577,42.0434388 129.826381,41.7469648 C130.092186,41.4504908 130.409106,41.2179121 130.777143,41.0492286 C131.14518,40.8805451 131.546442,40.801315 131.98093,40.8115383 C132.64544,40.8115383 133.197495,40.9572194 133.637095,41.2485818 C134.076694,41.5399442 134.373168,41.9309832 134.526517,42.4216987 L133.399404,42.8510749 C133.297172,42.5750474 133.122099,42.3603593 132.874185,42.2070107 C132.626272,42.0536621 132.341299,41.9769878 132.019267,41.9769878 C131.753462,41.9769878 131.511938,42.0268261 131.294694,42.1265027 C131.077451,42.2261793 130.892154,42.364193 130.738806,42.5405439 C130.585457,42.7168948 130.466612,42.9290271 130.38227,43.1769407 C130.297928,43.4248543 130.255758,43.6996039 130.255758,44.0011895 C130.255758,44.2669938 130.297928,44.4957388 130.38227,44.6874246 C130.466612,44.8791103 130.57779,45.0362927 130.715803,45.1589716 C130.853817,45.2816505 131.007166,45.3723817 131.175849,45.4311654 C131.344533,45.489949 131.513216,45.5193408 131.6819,45.5193408 C132.024378,45.5193408 132.336187,45.4273317 132.617326,45.2433133 C132.903577,45.059295 133.087595,44.7525977 133.169381,44.3232216 L131.658897,44.3232216 L131.812246,43.2344464 Z M135.040234,46.5927812 L135.837647,40.9188823 L137.079771,40.9188823 L136.282358,46.5927812 L135.040234,46.5927812 Z M139.180647,42.0919992 L139.027299,43.1654395 L141.120507,43.173107 L140.951824,44.277217 L138.87395,44.2695496 L138.705266,45.4196642 L141.066835,45.4273317 L140.898152,46.5927812 L137.302127,46.5927812 L138.099539,40.9188823 L141.703232,40.9188823 L141.526881,42.0919992 L139.180647,42.0919992 Z M144.409835,40.8115383 C144.977225,40.8115383 145.424492,40.9431625 145.751635,41.2064109 C146.078779,41.4696594 146.25513,41.8185275 146.280688,42.2530153 L145.061567,42.5597125 C145.051343,42.3552477 144.975947,42.203177 144.835377,42.1035004 C144.694808,42.0038238 144.506956,41.9539855 144.271821,41.9539855 C144.011129,41.9539855 143.814331,42.0102133 143.681429,42.1226689 C143.548527,42.2351246 143.482076,42.37825 143.482076,42.5520451 C143.482076,42.8127377 143.63798,42.983977 143.949789,43.0657629 L144.800874,43.3111207 C145.23025,43.4337996 145.551004,43.6267633 145.763137,43.8900118 C145.975269,44.1532602 146.081335,44.479126 146.081335,44.8676092 C146.081335,45.1334135 146.026385,45.3774934 145.916485,45.5998489 C145.806585,45.8222043 145.651959,46.0138901 145.452606,46.1749062 C145.253252,46.3359222 145.013006,46.4624348 144.731867,46.554444 C144.450728,46.6464532 144.138919,46.6924578 143.796441,46.6924578 C143.193269,46.6924578 142.712777,46.5569998 142.354964,46.2860839 C141.99715,46.015168 141.797797,45.6420197 141.756904,45.166639 L142.968358,44.8676092 C142.968358,45.0874089 143.055256,45.2548145 143.229051,45.3698259 C143.402846,45.4848374 143.635424,45.5423431 143.926787,45.5423431 C144.202814,45.5423431 144.420058,45.4886711 144.578518,45.3813271 C144.736979,45.273983 144.816209,45.1334135 144.816209,44.9596184 C144.816209,44.7244838 144.66286,44.560912 144.356163,44.4689028 L143.497411,44.2082101 C143.078258,44.0804196 142.760059,43.8849001 142.542816,43.6216517 C142.325572,43.3584032 142.21695,43.0504281 142.21695,42.6977263 C142.21695,42.4216987 142.269344,42.1686735 142.374132,41.9386506 C142.47892,41.7086277 142.627157,41.5105524 142.818843,41.3444247 C143.010529,41.178297 143.24183,41.0479507 143.512746,40.9533857 C143.783661,40.8588207 144.082691,40.8115383 144.409835,40.8115383 Z" fill="#052328"></path>
                </g>
            </g>
        </g>
    </g>
</svg>