<?xml version="1.0" encoding="UTF-8"?>
<svg width="692px" height="551px" viewBox="0 0 692 551" version="1.1" xmlns="http://www.w3.org/2000/svg" xmlns:xlink="http://www.w3.org/1999/xlink">
    <title>Combined Shape</title>
    <g id="Page-1" stroke="none" stroke-width="1" fill="none" fill-rule="evenodd" opacity="0.03">
        <g id="Desktop-HD-Copy-14" transform="translate(-748.000000, -790.000000)" fill="#000000" fill-rule="nonzero">
            <path d="M834.465116,821 L848.717608,829.571429 L869.621262,834.333333 L891.475083,833.380952 L904.777409,843.857143 L909.528239,844.809524 L915.229236,841.952381 L919.980066,841.952381 L938.033223,849.571429 L949.435216,845.761905 L949.435216,843.857143 L947.534884,839.095238 L952.285714,835.285714 L955.136213,835.285714 L956.086379,836.238095 L957.036545,842.904762 L967.488372,845.761905 L967.488372,842.904762 L970.33887,842.904762 L973.189369,845.761905 L973.189369,848.619048 L967.488372,854.333333 L952.285714,855.285714 L941.833887,861.952381 L927.581395,865.761905 L922.830565,872.428571 L918.079734,881 L917.129568,887.666667 L923.780731,891.47619 L929.481728,897.190476 L934.232558,898.142857 L934.232558,901.952381 L931.38206,907.666667 L931.38206,912.428571 L937.083056,911.47619 L944.684385,899.095238 L952.285714,894.333333 L953.23588,887.666667 L964.637874,871.47619 L975.089701,870.52381 L979.840532,879.095238 L979.840532,881.952381 L978.890365,884.809524 L985.541528,885.761905 L990.292359,879.095238 L992.192691,879.095238 L994.093023,892.428571 L1000.74419,907.666667 L1000.74419,911.47619 L998.843854,915.285714 L984.591362,921.952381 L978.890365,922.904762 L977.940199,921 L966.538206,921 L951.335548,930.52381 L951.335548,932.428571 L953.23588,932.428571 L962.737542,926.714286 L971.289037,926.714286 L971.289037,928.619048 L968.438538,931.47619 L968.438538,936.238095 L975.089701,939.095238 L974.139535,942.904762 L965.58804,944.809524 L962.737542,946.714286 L962.737542,948.619048 L960.837209,947.666667 L960.837209,945.761905 L964.637874,943.857143 L964.637874,940.047619 L957.036545,941.952381 L946.584718,947.666667 L942.784053,954.333333 L934.232558,955.285714 L926.631229,966.714286 L923.780731,970.52381 L920.930233,971.47619 L921.880399,965.761905 L919.980066,965.761905 L916.179402,978.142857 L904.777409,986.714286 L897.17608,995.285714 L896.225914,1003.85714 L894.325581,1015.28571 L893.375415,1019.09524 L891.475083,1019.09524 L888.624585,1012.42857 L888.624585,1000.04762 L883.873754,998.142857 L877.222591,998.142857 L871.521595,999.095238 L871.521595,1002.90476 L866.770764,1003.85714 L861.069767,1001 L851.568106,1001 L842.066445,1009.57143 L836.365449,1021 L834.465116,1033.38095 L837.315615,1041 L840.166113,1045.7619 L850.61794,1045.7619 L855.368771,1038.14286 L867.72093,1036.2381 L867.72093,1040.04762 L859.169435,1055.28571 L858.219269,1058.14286 L874.372093,1059.09524 L872.471761,1073.38095 L872.471761,1080.04762 L875.322259,1081.95238 L877.222591,1085.7619 L881.023256,1087.66667 L884.82392,1085.7619 L887.674419,1084.80952 L889.574751,1085.7619 L891.475083,1087.66667 L892.425249,1089.57143 L895.275748,1089.57143 L898.126246,1080.04762 L902.877076,1078.14286 L908.578073,1075.28571 L912.378738,1072.42857 L914.27907,1073.38095 L914.27907,1075.28571 L911.428571,1077.19048 L911.428571,1080.04762 L910.478405,1081 L909.528239,1084.80952 L911.428571,1086.71429 L915.229236,1085.7619 L915.229236,1079.09524 L917.129568,1074.33333 L919.980066,1074.33333 L927.581395,1081 L934.232558,1081.95238 L938.033223,1081 L940.883721,1080.04762 L942.784053,1081 L945.634551,1085.7619 L950.385382,1089.57143 L953.23588,1093.38095 L958.936877,1099.09524 L971.289037,1101 L975.089701,1105.7619 L978.890365,1110.52381 L980.790698,1117.19048 L979.840532,1121.95238 L977.940199,1124.80952 L976.039867,1127.66667 L976.039867,1129.57143 L977.940199,1129.57143 L977.940199,1127.66667 L982.69103,1125.7619 L983.641196,1124.80952 L987.44186,1124.80952 L987.44186,1127.66667 L986.491694,1129.57143 L984.591362,1130.52381 L982.69103,1130.52381 L982.69103,1133.38095 L986.491694,1133.38095 L989.342193,1130.52381 L990.292359,1126.71429 L993.142857,1126.71429 L995.993355,1129.57143 L999.79402,1131.47619 L1009.29568,1136.2381 L1016.89701,1136.2381 L1027.34884,1142.90476 L1031.1495,1142.90476 L1034,1157.19048 L1020.69767,1174.33333 L1022.59801,1182.90476 L1022.59801,1191.47619 L1018.79734,1204.80952 L1015.94684,1214.33333 L1005.49502,1218.14286 L995.993355,1223.85714 L995.043189,1238.14286 L991.242525,1248.61905 L987.44186,1258.14286 L983.641196,1263.85714 L980.790698,1263.85714 L973.189369,1260.04762 L969.388704,1259.09524 L977.940199,1269.57143 L975.089701,1275.28571 L972.239203,1279.09524 L966.538206,1279.09524 L963.687708,1281 L963.687708,1282.90476 L964.637874,1283.85714 L963.687708,1287.66667 L958.936877,1289.57143 L958.936877,1292.42857 L961.787375,1296.2381 L960.837209,1302.90476 L957.036545,1309.57143 L964.637874,1314.33333 L964.637874,1318.14286 L962.737542,1321 L962.737542,1328.61905 L964.637874,1334.33333 L961.787375,1338.14286 L961.787375,1341 L959.887043,1341 L955.136213,1338.14286 L954.186047,1334.33333 L951.335548,1333.38095 L940.883721,1315.28571 L938.983389,1314.33333 L937.083056,1313.38095 L937.083056,1311.47619 L939.933555,1309.57143 L939.933555,1305.7619 L936.13289,1293.38095 L929.481728,1289.57143 L928.531561,1285.7619 L928.531561,1281 L926.631229,1277.19048 L927.581395,1268.61905 L928.531561,1267.66667 L928.531561,1256.2381 L925.681063,1252.42857 L925.681063,1240.04762 L924.730897,1234.33333 L923.780731,1228.61905 L922.830565,1221 L922.830565,1214.33333 L921.880399,1208.61905 L919.980066,1201.95238 L919.0299,1199.09524 L911.428571,1193.38095 L907.627907,1189.57143 L899.076412,1181 L895.275748,1174.33333 L891.475083,1169.57143 L887.674419,1161.95238 L886.724252,1159.09524 L884.82392,1153.38095 L878.172757,1149.57143 L878.172757,1141 L881.973422,1137.19048 L881.973422,1135.28571 L879.122924,1135.28571 L879.122924,1129.57143 L881.023256,1120.04762 L889.574751,1111.47619 L889.574751,1094.33333 L888.624585,1090.52381 L886.724252,1089.57143 L885.774086,1089.57143 L883.873754,1090.52381 L882.923588,1094.33333 L879.122924,1094.33333 L873.421927,1088.61905 L866.770764,1084.80952 L864.870432,1081.95238 L863.920266,1077.19048 L862.019934,1073.38095 L860.119601,1069.57143 L855.368771,1069.57143 L849.667774,1064.80952 L846.817276,1062.90476 L843.966777,1061 L841.116279,1057.19048 L839.215947,1055.28571 L837.315615,1057.19048 L833.51495,1059.09524 L821.162791,1051.47619 L814.511628,1047.66667 L808.810631,1042.90476 L805.960133,1039.09524 L806.910299,1035.28571 L806.910299,1025.7619 L801.209302,1014.33333 L797.408638,1004.80952 L795.508306,997.190476 L795.508306,981 L793.607973,981 L792.657807,984.809524 L790.757475,992.428571 L789.807309,997.190476 L791.707641,1001.95238 L794.55814,1012.42857 L797.408638,1022.90476 L797.408638,1024.80952 L794.55814,1024.80952 L792.657807,1019.09524 L789.807309,1014.33333 L786.956811,1007.66667 L786.006645,1003.85714 L787.906977,998.142857 L786.956811,994.333333 L786.006645,988.619048 L785.056478,984.809524 L785.056478,979.095238 L779.355482,974.333333 L779.355482,966.714286 L781.255814,958.142857 L784.106312,948.619048 L793.607973,932.428571 L799.30897,921.952381 L804.059801,916.238095 L807.860465,916.238095 L807.860465,918.142857 L809.760797,919.095238 L809.760797,915.285714 L810.710963,907.666667 L808.810631,902.904762 L809.760797,897.190476 L812.611296,886.714286 L816.41196,878.142857 L817.362126,873.380952 L817.362126,871.47619 L816.41196,871.47619 L813.561462,872.428571 L811.66113,872.428571 L810.710963,870.52381 L809.760797,868.619048 L808.810631,865.761905 L805.009967,864.809524 L800.259136,861.952381 L798.358804,860.047619 L796.458472,860.047619 L794.55814,861.952381 L790.757475,863.857143 L788.857143,864.809524 L783.156146,864.809524 L782.20598,863.857143 L784.106312,861.952381 L786.956811,861 L788.857143,859.095238 L791.707641,857.190476 L791.707641,855.285714 L789.807309,855.285714 L784.106312,858.142857 L762.252492,869.571429 L753.700997,874.333333 L749.900332,875.285714 L748,875.285714 L748,872.428571 L763.202658,864.809524 L763.202658,862.904762 L759.401993,861.952381 L759.401993,858.142857 L763.202658,848.619048 L769.853821,848.619048 L783.156146,844.809524 L786.006645,834.333333 L801.209302,826.714286 L812.611296,826.714286 L830.664452,821 L834.465116,821 Z M1664.10526,1309 L1667.02632,1311.875 L1668,1315.70833 L1663.13158,1317.625 L1654.36842,1319.54167 L1648.52632,1324.33333 L1644.63158,1327.20833 L1642.68421,1330.08333 L1639.76316,1332 L1631,1332 L1631,1327.20833 L1633.92105,1325.29167 L1641.71053,1322.41667 L1646.57895,1318.58333 L1653.39474,1315.70833 L1659.23684,1309.95833 L1664.10526,1309 Z M1587.625,1300 L1589.5,1301.84615 L1592.3125,1300.92308 L1596.0625,1300.92308 L1597,1304.61538 L1592.3125,1307.38462 L1591.375,1309.23077 L1588.5625,1312 L1582,1312 L1582,1307.38462 L1583.875,1302.76923 L1583.875,1300 L1585.75,1300.92308 L1587.625,1300 Z M1630.71533,1169 L1631.66423,1186.03817 L1632.61314,1201.18321 L1640.20438,1218.22137 L1644,1239.0458 L1638.30657,1251.35115 L1626.91971,1270.28244 L1611.73723,1285.42748 L1608.89051,1287.32061 L1604.14599,1288.26718 L1600.35036,1291.10687 L1597.50365,1293 L1594.65693,1292.05344 L1594.65693,1290.16031 L1590.86131,1290.16031 L1588.9635,1293 L1586.11679,1291.10687 L1582.32117,1285.42748 L1581.37226,1278.80153 L1579.47445,1273.12214 L1584.21898,1268.38931 L1584.21898,1266.49618 L1581.37226,1266.49618 L1576.62774,1269.33588 L1576.62774,1272.17557 L1573.78102,1273.12214 L1573.78102,1262.70992 L1570.93431,1259.87023 L1552.90511,1259.87023 L1538.67153,1262.70992 L1525.38686,1268.38931 L1520.64234,1269.33588 L1516.84672,1270.28244 L1514,1265.54962 L1518.74453,1249.45802 L1521.59124,1231.47328 L1522.54015,1215.38168 L1535.82482,1208.75573 L1548.16058,1206.8626 L1563.34307,1192.66412 L1573.78102,1184.14504 L1578.52555,1183.19847 L1578.52555,1186.98473 L1584.21898,1186.98473 L1582.32117,1184.14504 L1582.32117,1181.30534 L1586.11679,1180.35878 L1591.81022,1173.73282 L1593.70803,1170.89313 L1597.50365,1170.89313 L1599.40146,1172.78626 L1606.0438,1173.73282 L1606.9927,1176.57252 L1603.19708,1186.03817 L1604.14599,1189.82443 L1606.0438,1192.66412 L1612.68613,1199.29008 L1616.48175,1198.34351 L1622.17518,1187.9313 L1624.07299,1179.41221 L1625.9708,1172.78626 L1628.81752,1169 L1630.71533,1169 Z M1396.8659,815 L1400.67433,815.955032 L1399.72222,819.775161 L1394.96169,826.460385 L1396.8659,827.415418 L1405.43487,822.640257 L1415.90805,822.640257 L1450.18391,828.37045 L1453.99234,829.325482 L1462.5613,828.37045 L1463.51341,824.550321 L1465.41762,821.685225 L1471.13027,822.640257 L1485.41188,825.505353 L1498.74138,825.505353 L1508.26245,824.550321 L1518.73563,828.37045 L1527.3046,828.37045 L1537.77778,823.595289 L1546.34674,823.595289 L1567.2931,825.505353 L1580.62261,830.280514 L1589.19157,832.190578 L1593,835.055675 L1593,836.965739 L1589.19157,836.965739 L1585.38314,836.010707 L1579.6705,836.010707 L1577.76628,835.055675 L1575.86207,836.010707 L1575.86207,840.785867 L1581.57471,842.695931 L1586.33525,844.605996 L1589.19157,845.561028 L1588.23946,848.426124 L1582.52682,857.021413 L1582.52682,858.931478 L1574.90996,859.88651 L1570.14943,861.796574 L1573.00575,865.616702 L1579.6705,872.301927 L1585.38314,881.852248 L1588.23946,891.40257 L1588.23946,897.132762 L1586.33525,897.132762 L1582.52682,892.357602 L1576.81418,886.627409 L1568.24521,878.987152 L1562.53257,875.167024 L1562.53257,870.391863 L1565.38889,866.571734 L1564.43678,860.841542 L1561.58046,856.066381 L1559.67625,855.111349 L1557.77203,857.976445 L1556.81992,857.976445 L1554.91571,857.021413 L1551.10728,857.021413 L1551.10728,861.796574 L1553.01149,866.571734 L1549.20307,869.436831 L1542.53831,870.391863 L1536.82567,871.346895 L1530.16092,871.346895 L1524.44828,873.256959 L1523.49617,875.167024 L1523.49617,887.582441 L1528.2567,892.357602 L1530.16092,892.357602 L1531.11303,891.40257 L1534.92146,891.40257 L1538.72989,894.267666 L1545.39464,901.907923 L1549.20307,909.54818 L1552.05939,917.188437 L1553.9636,926.738758 L1554.91571,936.289079 L1545.39464,939.154176 L1544.44253,946.794433 L1543.49042,953.479657 L1547.29885,959.20985 L1552.05939,966.850107 L1553.01149,968.760171 L1553.01149,971.625268 L1550.15517,973.535332 L1547.29885,975.445396 L1546.34674,972.5803 L1543.49042,966.850107 L1540.6341,962.074946 L1536.82567,959.20985 L1531.11303,953.479657 L1530.16092,953.479657 L1526.35249,957.299786 L1523.49617,956.344754 L1523.49617,952.524625 L1524.44828,950.614561 L1520.63985,950.614561 L1514.9272,956.344754 L1514.9272,959.20985 L1518.73563,963.029979 L1526.35249,963.029979 L1530.16092,964.940043 L1529.20881,966.850107 L1527.3046,967.805139 L1527.3046,972.5803 L1534.92146,984.040685 L1538.72989,991.680942 L1535.87356,992.635974 L1538.72989,994.546039 L1540.6341,997.411135 L1540.6341,1010.78158 L1536.82567,1015.55675 L1527.3046,1025.10707 L1518.73563,1030.83726 L1515.87931,1035.61242 L1513.9751,1035.61242 L1512.07088,1032.74732 L1510.16667,1030.83726 L1506.35824,1032.74732 L1502.54981,1042.29764 L1503.50192,1046.11777 L1511.11877,1052.803 L1516.83142,1059.48822 L1517.78352,1070.94861 L1514.9272,1075.72377 L1512.07088,1079.5439 L1508.26245,1082.40899 L1507.31034,1085.27409 L1504.45402,1085.27409 L1504.45402,1082.40899 L1502.54981,1079.5439 L1500.64559,1077.63383 L1496.83716,1074.76874 L1496.83716,1070.94861 L1493.98084,1069.99358 L1491.12452,1068.08351 L1490.17241,1066.17345 L1486.36398,1066.17345 L1488.2682,1075.72377 L1488.2682,1083.36403 L1491.12452,1090.04925 L1494.93295,1095.77944 L1498.74138,1101.50964 L1503.50192,1111.05996 L1502.54981,1113.92505 L1499.69349,1113.92505 L1496.83716,1111.05996 L1494.93295,1111.05996 L1489.22031,1098.64454 L1486.36398,1093.86938 L1481.60345,1089.09422 L1481.60345,1075.72377 L1480.65134,1067.12848 L1477.79502,1059.48822 L1474.9387,1050.89293 L1473.03448,1051.84797 L1470.17816,1054.71306 L1467.32184,1055.66809 L1464.46552,1054.71306 L1465.41762,1047.07281 L1459.70498,1039.43255 L1455.89655,1036.56745 L1455.89655,1033.70236 L1454.94444,1028.92719 L1451.13602,1028.92719 L1447.32759,1033.70236 L1444.47126,1032.74732 L1443.51916,1030.83726 L1440.66284,1032.74732 L1436.85441,1039.43255 L1432.09387,1046.11777 L1428.28544,1050.89293 L1422.5728,1059.48822 L1419.71648,1071.90364 L1418.76437,1079.5439 L1415.90805,1090.04925 L1414.00383,1090.04925 L1411.14751,1089.09422 L1408.29119,1080.49893 L1403.53065,1072.85867 L1396.8659,1056.62313 L1394.00958,1045.16274 L1393.05747,1033.70236 L1390.20115,1033.70236 L1389.24904,1039.43255 L1387.34483,1040.38758 L1384.48851,1038.47752 L1378.77586,1032.74732 L1376.87165,1029.88223 L1375.91954,1026.0621 L1371.159,1022.24197 L1349.26054,1022.24197 L1345.45211,1021.28694 L1340.69157,1019.37687 L1340.69157,1015.55675 L1338.78736,1013.64668 L1334.02682,1014.60171 L1332.12261,1016.51178 L1326.40996,1016.51178 L1323.55364,1013.64668 L1317.841,1007.91649 L1314.03257,1004.09636 L1310.22414,1004.09636 L1308.31992,1006.96146 L1308.31992,1008.87152 L1313.08046,1012.69165 L1314.98467,1016.51178 L1316.88889,1017.46681 L1317.841,1020.33191 L1319.74521,1020.33191 L1322.60153,1019.37687 L1323.55364,1021.28694 L1323.55364,1026.0621 L1326.40996,1026.0621 L1331.1705,1027.01713 L1333.07471,1024.15203 L1334.97893,1020.33191 L1338.78736,1020.33191 L1338.78736,1025.10707 L1339.73946,1027.97216 L1342.59579,1028.92719 L1346.40421,1029.88223 L1348.30843,1030.83726 L1349.26054,1032.74732 L1345.45211,1043.25268 L1340.69157,1049.9379 L1335.93103,1054.71306 L1332.12261,1056.62313 L1326.40996,1060.44325 L1321.64943,1065.21842 L1316.88889,1068.08351 L1304.51149,1070.94861 L1300.70307,1071.90364 L1296.89464,1066.17345 L1294.99042,1063.30835 L1293.08621,1051.84797 L1284.51724,1039.43255 L1270.23563,1017.46681 L1267.37931,1007.91649 L1265.4751,1009.82655 L1264.52299,1008.87152 L1263.57088,1007.91649 L1260.71456,1007.91649 L1260.71456,1011.73662 L1263.57088,1017.46681 L1270.23563,1029.88223 L1275.94828,1039.43255 L1275.94828,1046.11777 L1283.56513,1053.75803 L1285.46935,1061.39829 L1287.37356,1062.35332 L1292.1341,1068.08351 L1297.84674,1073.8137 L1296.89464,1080.49893 L1300.70307,1081.45396 L1307.36782,1079.5439 L1318.7931,1075.72377 L1324.50575,1074.76874 L1324.50575,1077.63383 L1314.03257,1103.4197 L1305.4636,1115.83512 L1294.03831,1127.2955 L1285.46935,1137.80086 L1285.46935,1150.21627 L1289.27778,1175.04711 L1289.27778,1181.73233 L1281.66092,1189.37259 L1274.04406,1196.05782 L1267.37931,1201.78801 L1269.28352,1210.3833 L1269.28352,1218.97859 L1260.71456,1224.70878 L1260.71456,1227.57388 L1255.00192,1239.03426 L1246.43295,1249.53961 L1239.7682,1254.31478 L1233.10345,1255.26981 L1223.58238,1257.17987 L1219.77395,1261 L1216.91762,1260.04497 L1215.96552,1258.1349 L1211.20498,1255.26981 L1210.25287,1245.71949 L1201.68391,1230.43897 L1198.82759,1210.3833 L1192.16284,1195.10278 L1192.16284,1179.82227 L1198.82759,1167.40685 L1195.97126,1150.21627 L1190.25862,1138.75589 L1181.68966,1125.38544 L1182.64176,1117.74518 L1185.49808,1112.01499 L1185.49808,1107.23983 L1175.0249,1107.23983 L1169.31226,1098.64454 L1162.64751,1098.64454 L1149.31801,1102.46467 L1132.18008,1108.19486 L1125.51533,1107.23983 L1110.28161,1091.00428 L1099.80843,1077.63383 L1096,1069.99358 L1096,1061.39829 L1098.85632,1051.84797 L1098.85632,1042.29764 L1099.80843,1035.61242 L1108.37739,1017.46681 L1113.13793,1012.69165 L1115.99425,1012.69165 L1122.659,1004.09636 L1124.56322,997.411135 L1125.51533,994.546039 L1131.22797,990.72591 L1133.13218,987.860814 L1136.94061,982.130621 L1139.79693,982.130621 L1142.65326,984.040685 L1146.46169,984.040685 L1156.93487,980.220557 L1165.50383,978.310493 L1170.26437,977.35546 L1175.0249,975.445396 L1181.68966,975.445396 L1190.25862,976.400428 L1189.30651,980.220557 L1187.4023,985.950749 L1188.35441,987.860814 L1192.16284,990.72591 L1195.97126,992.635974 L1201.68391,993.591006 L1203.58812,993.591006 L1204.54023,998.366167 L1209.30077,1000.27623 L1215.96552,1002.1863 L1218.82184,1002.1863 L1218.82184,999.321199 L1217.86973,999.321199 L1217.86973,996.456103 L1221.67816,993.591006 L1227.3908,992.635974 L1230.24713,995.501071 L1234.05556,998.366167 L1239.7682,1001.23126 L1244.52874,1001.23126 L1248.33716,999.321199 L1253.0977,998.366167 L1255.95402,998.366167 L1258.81034,999.321199 L1260.71456,1000.27623 L1262.61877,996.456103 L1263.57088,992.635974 L1265.4751,987.860814 L1265.4751,980.220557 L1266.4272,979.265525 L1266.4272,977.35546 L1259.76245,978.310493 L1249.28927,978.310493 L1242.62452,979.265525 L1240.72031,976.400428 L1238.81609,970.670236 L1236.91188,964.940043 L1240.72031,964.940043 L1242.62452,962.074946 L1243.57663,961.119914 L1250.24138,961.119914 L1252.14559,959.20985 L1255.00192,957.299786 L1256.90613,955.389722 L1261.66667,955.389722 L1264.52299,957.299786 L1268.33142,958.254818 L1271.18774,959.20985 L1280.70881,959.20985 L1280.70881,955.389722 L1281.66092,953.479657 L1279.7567,952.524625 L1276.90038,952.524625 L1274.99617,949.659529 L1273.09195,947.749465 L1269.28352,945.8394 L1267.37931,943.929336 L1267.37931,941.06424 L1270.23563,939.154176 L1272.13985,937.244111 L1272.13985,936.289079 L1270.23563,935.334047 L1268.33142,936.289079 L1260.71456,940.109208 L1262.61877,942.019272 L1262.61877,944.884368 L1259.76245,946.794433 L1256.90613,946.794433 L1255.00192,943.929336 L1253.0977,939.154176 L1252.14559,937.244111 L1250.24138,938.199143 L1245.48084,940.109208 L1243.57663,946.794433 L1240.72031,951.569593 L1240.72031,956.344754 L1242.62452,959.20985 L1237.86398,963.029979 L1235.95977,963.029979 L1233.10345,961.119914 L1228.34291,962.074946 L1227.3908,964.940043 L1227.3908,978.310493 L1222.63027,979.265525 L1219.77395,976.400428 L1219.77395,971.625268 L1222.63027,970.670236 L1218.82184,969.715203 L1216.91762,965.895075 L1215.01341,961.119914 L1212.15709,956.344754 L1208.34866,954.43469 L1202.63602,948.704497 L1198.82759,947.749465 L1196.92337,945.8394 L1195.97126,943.929336 L1194.06705,943.929336 L1193.11494,946.794433 L1195.01916,948.704497 L1196.92337,951.569593 L1197.87548,953.479657 L1201.68391,956.344754 L1204.54023,957.299786 L1204.54023,959.20985 L1209.30077,962.074946 L1211.20498,964.940043 L1212.15709,967.805139 L1211.20498,967.805139 L1209.30077,965.895075 L1208.34866,965.895075 L1208.34866,971.625268 L1207.39655,973.535332 L1205.49234,973.535332 L1205.49234,968.760171 L1202.63602,965.895075 L1199.77969,962.074946 L1196.92337,960.164882 L1193.11494,960.164882 L1190.25862,958.254818 L1187.4023,952.524625 L1185.49808,949.659529 L1183.59387,947.749465 L1180.73755,948.704497 L1176.92912,953.479657 L1173.12069,954.43469 L1171.21648,952.524625 L1167.40805,954.43469 L1166.45594,957.299786 L1156.93487,964.940043 L1153.12644,973.535332 L1149.31801,980.220557 L1146.46169,980.220557 L1143.60536,978.310493 L1140.74904,979.265525 L1136.94061,980.220557 L1133.13218,978.310493 L1130.27586,977.35546 L1128.37165,975.445396 L1128.37165,951.569593 L1133.13218,950.614561 L1138.84483,950.614561 L1145.50958,952.524625 L1148.3659,952.524625 L1152.17433,950.614561 L1151.22222,947.749465 L1153.12644,944.884368 L1152.17433,939.154176 L1148.3659,936.289079 L1144.55747,934.379015 L1143.60536,933.423983 L1143.60536,930.558887 L1149.31801,930.558887 L1150.27011,927.69379 L1149.31801,926.738758 L1152.17433,925.783726 L1153.12644,928.648822 L1156.93487,928.648822 L1163.59962,921.008565 L1166.45594,920.053533 L1168.36015,917.188437 L1170.26437,916.233405 L1171.21648,919.098501 L1172.16858,918.143469 L1172.16858,912.413276 L1175.97701,911.458244 L1180.73755,910.503212 L1181.68966,906.683084 L1181.68966,899.997859 L1180.73755,897.132762 L1183.59387,895.222698 L1186.45019,894.267666 L1187.4023,897.132762 L1187.4023,901.907923 L1185.49808,903.817987 L1185.49808,906.683084 L1188.35441,907.638116 L1193.11494,908.593148 L1195.97126,908.593148 L1200.7318,906.683084 L1208.34866,906.683084 L1211.20498,907.638116 L1213.1092,906.683084 L1214.0613,901.907923 L1215.96552,897.132762 L1217.86973,895.222698 L1219.77395,895.222698 L1220.72605,896.17773 L1223.58238,895.222698 L1223.58238,892.357602 L1222.63027,888.537473 L1229.29502,887.582441 L1232.15134,887.582441 L1235.95977,885.672377 L1233.10345,882.807281 L1230.24713,883.762313 L1227.3908,884.717345 L1223.58238,885.672377 L1219.77395,885.672377 L1215.01341,876.122056 L1215.01341,873.256959 L1218.82184,869.436831 L1221.67816,866.571734 L1221.67816,861.796574 L1220.72605,861.796574 L1217.86973,860.841542 L1215.01341,863.706638 L1211.20498,867.526767 L1211.20498,870.391863 L1207.39655,872.301927 L1204.54023,878.987152 L1206.44444,883.762313 L1206.44444,886.627409 L1203.58812,891.40257 L1201.68391,896.17773 L1201.68391,899.042827 L1199.77969,900.952891 L1197.87548,901.907923 L1196.92337,903.817987 L1193.11494,903.817987 L1193.11494,899.997859 L1191.21073,897.132762 L1189.30651,895.222698 L1189.30651,890.447537 L1188.35441,891.40257 L1188.35441,888.537473 L1184.54598,890.447537 L1183.59387,890.447537 L1181.68966,892.357602 L1177.88123,892.357602 L1175.97701,889.492505 L1175.97701,879.942184 L1180.73755,876.122056 L1184.54598,872.301927 L1193.11494,863.706638 L1199.77969,857.976445 L1208.34866,849.381156 L1221.67816,840.785867 L1228.34291,840.785867 L1234.05556,842.695931 L1236.91188,844.605996 L1246.43295,848.426124 L1255.00192,854.156317 L1256.90613,854.156317 L1259.76245,857.021413 L1259.76245,859.88651 L1258.81034,861.796574 L1255.00192,861.796574 L1250.24138,859.88651 L1246.43295,858.931478 L1242.62452,857.021413 L1242.62452,860.841542 L1244.52874,862.751606 L1248.33716,864.66167 L1253.0977,869.436831 L1255.95402,869.436831 L1262.61877,863.706638 L1264.52299,862.751606 L1267.37931,859.88651 L1268.33142,861.796574 L1271.18774,861.796574 L1271.18774,857.976445 L1269.28352,857.021413 L1269.28352,854.156317 L1267.37931,853.201285 L1267.37931,849.381156 L1269.28352,849.381156 L1273.09195,852.246253 L1273.09195,856.066381 L1274.99617,856.066381 L1280.70881,854.156317 L1288.32567,851.291221 L1294.03831,849.381156 L1302.60728,847.471092 L1312.12835,846.51606 L1316.88889,849.381156 L1320.69732,849.381156 L1320.69732,846.51606 L1317.841,842.695931 L1314.98467,841.740899 L1314.98467,838.875803 L1320.69732,833.14561 L1321.64943,832.190578 L1325.45785,831.235546 L1326.40996,833.14561 L1326.40996,836.965739 L1334.97893,848.426124 L1334.97893,853.201285 L1332.12261,854.156317 L1330.21839,857.021413 L1334.97893,857.021413 L1337.83525,854.156317 L1338.78736,848.426124 L1344.5,848.426124 L1344.5,846.51606 L1337.83525,844.605996 L1333.07471,840.785867 L1331.1705,836.010707 L1341.64368,829.325482 L1346.40421,825.505353 L1352.11686,820.730193 L1367.35057,815.955032 L1373.06322,815 L1396.8659,815 Z M1320,1169 L1320,1186.35714 L1313.26923,1204.67857 L1308.46154,1220.10714 L1301.73077,1223 L1297.88462,1223 L1295,1216.25 L1295,1210.46429 L1298.84615,1200.82143 L1299.80769,1196 L1297.88462,1195.03571 L1299.80769,1188.28571 L1305.57692,1183.46429 L1308.46154,1181.53571 L1311.34615,1176.71429 L1318.07692,1169.96429 L1320,1169 Z M1338.5,1204 L1340.5,1206 L1340.5,1208 L1338.5,1208 L1335.5,1207 L1335.5,1204 L1338.5,1204 Z M1345.5,1199 L1345.5,1202 L1344.5,1203 L1342.5,1203 L1343.5,1199 L1345.5,1199 Z M1598.76562,1125 L1600.67188,1125.93333 L1604.48438,1126.86667 L1605.4375,1128.73333 L1605.4375,1134.33333 L1609.25,1134.33333 L1614.01562,1130.6 L1621.64062,1132.46667 L1627.35938,1135.26667 L1632.125,1137.13333 L1639.75,1141.8 L1647.375,1148.33333 L1646.42188,1151.13333 L1647.375,1153.93333 L1650.23438,1157.66667 L1655,1164.2 L1654.04688,1167 L1649.28125,1167 L1644.51562,1165.13333 L1642.60938,1160.46667 L1637.84375,1154.86667 L1635.9375,1155.8 L1631.17188,1161.4 L1627.35938,1159.53333 L1621.64062,1158.6 L1615.92188,1153.93333 L1615.92188,1147.4 L1614.96875,1144.6 L1609.25,1140.86667 L1602.57812,1136.2 L1597.8125,1135.26667 L1594,1126.86667 L1596.85938,1125 L1598.76562,1125 Z M1580,1156 L1580,1158 L1579.07692,1159 L1573.53846,1162 L1570.76923,1164 L1568,1164 L1568,1161 L1570.76923,1160 L1570.76923,1158 L1573.53846,1158 L1578.15385,1156 L1580,1156 Z M1567,1155 L1567,1158 L1562,1161 L1557,1161 L1555,1160 L1555,1158 L1562,1157 L1565,1155 L1567,1155 Z M1552,1156 L1552,1158 L1550,1160 L1542,1160 L1546,1156 L1552,1156 Z M1512.52941,1145 L1516.29412,1147 L1524.76471,1148 L1530.41176,1150 L1536.05882,1155 L1537,1160 L1533.23529,1159 L1530.41176,1157 L1524.76471,1157 L1520.05882,1155 L1511.58824,1153 L1508.76471,1150 L1505,1150 L1506.88235,1147 L1512.52941,1145 Z M1663,1139 L1663,1145.36364 L1660.23077,1149 L1651,1149 L1651,1147.18182 L1654.69231,1145.36364 L1654.69231,1144.45455 L1656.53846,1144.45455 L1658.38462,1145.36364 L1659.30769,1145.36364 L1659.30769,1144.45455 L1660.23077,1141.72727 L1661.15385,1139.90909 L1663,1139 Z M1564.09091,1116 L1565,1117.93333 L1569.54545,1117.93333 L1573.18182,1116 L1575,1116 L1575,1116.96667 L1573.18182,1118.9 L1569.54545,1119.86667 L1561.36364,1119.86667 L1560.45455,1127.6 L1564.09091,1124.7 L1567.72727,1122.76667 L1570.45455,1123.73333 L1570.45455,1125.66667 L1568.63636,1125.66667 L1564.09091,1128.56667 L1564.09091,1131.46667 L1566.81818,1136.3 L1567.72727,1139.2 L1565.90909,1142.1 L1562.27273,1143.06667 L1562.27273,1140.16667 L1561.36364,1133.4 L1559.54545,1133.4 L1558.63636,1137.26667 L1559.54545,1144.03333 L1559.54545,1145 L1555.90909,1145 L1555.90909,1139.2 L1555,1135.33333 L1555,1128.56667 L1557.72727,1118.9 L1559.54545,1116 L1564.09091,1116 Z M1476.79487,1100 L1488.17949,1109.56522 L1498.61538,1121.04348 L1506.20513,1128.69565 L1510,1133.47826 L1509.05128,1139.21739 L1509.05128,1143.04348 L1505.25641,1144 L1496.71795,1136.34783 L1488.17949,1122 L1481.53846,1112.43478 L1475.84615,1104.78261 L1473.94872,1104.78261 L1473,1100.95652 L1476.79487,1100 Z M1589,1134 L1593,1136 L1593,1138 L1588,1138 L1585,1137 L1585,1134 L1589,1134 Z M1541.70588,1093 L1547.35294,1093.95745 L1549.23529,1095.87234 L1551.11765,1097.78723 L1553,1100.65957 L1549.23529,1103.53191 L1548.29412,1109.2766 L1551.11765,1112.14894 L1552.05882,1116.93617 L1548.29412,1120.76596 L1545.47059,1129.38298 L1541.70588,1137.04255 L1539.82353,1138 L1536.05882,1138 L1524.76471,1133.21277 L1521.94118,1125.55319 L1521,1118.85106 L1521,1115.02128 L1522.88235,1115.02128 L1532.29412,1108.31915 L1537.94118,1101.61702 L1540.76471,1096.82979 L1541.70588,1093 Z M1586.5,1111 L1587.5,1114 L1587.5,1120 L1586.5,1123 L1584.5,1123 L1582.5,1120 L1582.5,1117 L1583.5,1113 L1585.5,1111 L1586.5,1111 Z M1422.72727,1082 L1426.36364,1087.64706 L1430,1091.41176 L1428.18182,1096.11765 L1422.72727,1098 L1420,1093.29412 L1420.90909,1087.64706 L1421.81818,1082.94118 L1422.72727,1082 Z M1569.21429,1079 L1570.14286,1081.76923 L1572,1084.53846 L1567.35714,1091 L1563.64286,1091 L1563.64286,1087.30769 L1562.71429,1086.38462 L1559,1086.38462 L1560.85714,1083.61538 L1562.71429,1082.69231 L1563.64286,1082.69231 L1565.5,1081.76923 L1566.42857,1079 L1569.21429,1079 Z M1555,1074 L1556,1075 L1555,1079 L1552,1084 L1550,1084 L1550,1080 L1552,1077 L1553,1075 L1555,1074 Z M1566.5,1071 L1566.5,1073 L1564.5,1076 L1561.5,1077 L1561.5,1074 L1562.5,1071 L1566.5,1071 Z M949.5,1060.5 L950.5,1067.5 L947.5,1067.5 L947.5,1060.5 L949.5,1060.5 Z M1554.75,1041 L1558.55,1045.80769 L1556.65,1051.57692 L1558.55,1058.30769 L1563.3,1060.23077 L1568.05,1064.07692 L1569,1066 L1566.15,1066 L1561.4,1062.15385 L1555.7,1062.15385 L1550.95,1055.42308 L1550,1051.57692 L1551.9,1049.65385 L1550.95,1044.84615 L1550,1041.96154 L1554.75,1041 Z M948.5,1054.5 L950.5,1055.5 L950.5,1058.5 L947.5,1059.5 L945.5,1054.5 L948.5,1054.5 Z M935.5,1047.5 L937.5,1049.5 L932.5,1050.5 L930.5,1049.5 L932.5,1047.5 L935.5,1047.5 Z M918.727273,1041.5 L922.363636,1045.5 L926,1045.5 L926,1047.5 L919.636364,1048.5 L916,1050.5 L915.090909,1049.5 L910.545455,1048.5 L906,1048.5 L906,1047.5 L906.909091,1046.5 L911.454545,1046.5 L911.454545,1042.5 L913.272727,1042.5 L918.727273,1041.5 Z M899,1047.5 L898,1050.5 L895,1050.5 L893,1049.5 L893,1047.5 L899,1047.5 Z M880.764706,1028 L893.941176,1029 L909,1040 L909,1043 L897.705882,1043 L898.647059,1040 L896.764706,1039 L893.941176,1036 L891.117647,1032 L877,1032 L877,1031 L880.764706,1028 Z M1549,1013 L1550,1018 L1550,1021 L1552,1028 L1549,1028 L1546,1025 L1544,1020 L1546,1014 L1549,1013 Z M1566,979 L1569,983.545455 L1571,986.272727 L1569,989 L1567,989 L1565,987.181818 L1564,984.454545 L1564,982.636364 L1561,982.636364 L1561,979.909091 L1563,979 L1566,979 Z M1264,982 L1264,984 L1262,986 L1259,988 L1257,988 L1256,986 L1258,983 L1264,982 Z M1228,983 L1231.63636,985 L1237.09091,984 L1238,986 L1234.36364,987 L1230.72727,985 L1228,985 L1228,983 Z M1202.18182,973 L1204,975 L1203.09091,979 L1200.36364,979 L1197.63636,977 L1194,975 L1194,973 L1202.18182,973 Z M1576.42308,943 L1580.26923,945.833333 L1583.15385,951.5 L1586.03846,959.055556 L1587,962.833333 L1586.03846,969.444444 L1582.19231,970.388889 L1579.30769,967.555556 L1573.53846,967.555556 L1568.73077,970.388889 L1568.73077,975.111111 L1565.84615,977 L1562,976.055556 L1562,974.166667 L1564.88462,970.388889 L1572.57692,964.722222 L1572.57692,960 L1574.5,960 L1577.38462,960.944444 L1579.30769,956.222222 L1576.42308,953.388889 L1574.5,947.722222 L1573.53846,943 L1576.42308,943 Z M1578.5,969.5 L1580.5,970.5 L1577.5,973.5 L1575.5,974.5 L1571.5,974.5 L1572.5,971.5 L1574.5,970.5 L1578.5,969.5 Z M1185,962 L1185,963 L1184,966 L1185,967 L1184,970 L1182,970 L1181,969 L1181,964 L1182,963 L1185,962 Z M1184,952 L1185,955 L1185,959 L1184,960 L1182,960 L1182,959 L1181,955 L1184,952 Z M1570.82353,927 L1573.64706,928 L1579.29412,928 L1581.17647,929 L1584,932 L1584,935 L1581.17647,937 L1581.17647,939 L1578.35294,939 L1576.47059,938 L1574.58824,938 L1574.58824,942 L1571.76471,942 L1569.88235,939 L1568.94118,937 L1570.82353,933 L1568,930 L1568,928 L1570.82353,927 Z M1002.11765,917 L1003.05882,918.904762 L1001.17647,923.666667 L1003.05882,926.52381 L1004,932.238095 L1003.05882,937 L998.352941,934.142857 L994.588235,932.238095 L989.882353,932.238095 L988,928.428571 L988,926.52381 L999.294118,917.952381 L1002.11765,917 Z M1152.47826,891 L1152.47826,891.944444 L1150.56522,893.833333 L1153.43478,894.777778 L1155.34783,897.611111 L1152.47826,899.5 L1152.47826,901.388889 L1154.3913,905.166667 L1156.30435,909.888889 L1159.17391,914.611111 L1163,914.611111 L1163,917.444444 L1160.13043,921.222222 L1154.3913,922.166667 L1146.73913,924.055556 L1141,925 L1141.95652,923.111111 L1145.78261,921.222222 L1145.78261,919.333333 L1144.82609,918.388889 L1146.73913,913.666667 L1150.56522,910.833333 L1150.56522,907.055556 L1147.69565,906.111111 L1143.86957,901.388889 L1143.86957,895.722222 L1146.73913,891 L1152.47826,891 Z M1544.89655,889 L1546.82759,890.942857 L1549.72414,895.8 L1553.58621,899.685714 L1555.51724,899.685714 L1561.31034,906.485714 L1564.2069,908.428571 L1564.2069,909.4 L1563.24138,911.342857 L1565.17241,916.2 L1568.06897,918.142857 L1570,920.085714 L1570,922.028571 L1568.06897,922.028571 L1568.06897,923 L1566.13793,923 L1564.2069,918.142857 L1561.31034,915.228571 L1558.41379,912.314286 L1553.58621,906.485714 L1548.75862,901.628571 L1544.89655,893.857143 L1542,890.942857 L1542,889 L1544.89655,889 Z M1140.1875,905 L1143,905.9375 L1140.1875,910.625 L1138.3125,915.3125 L1134.5625,920 L1132.6875,920 L1131.75,919.0625 L1129.875,920 L1128,920 L1129.875,916.25 L1128,915.3125 L1129.875,912.5 L1132.6875,906.875 L1137.375,905 L1140.1875,905 Z M806.5,904 L807.5,906.727273 L809.5,909.454545 L809.5,914 L808.5,914 L805.5,911.272727 L805.5,907.636364 L802.5,907.636364 L802.5,904 L806.5,904 Z M1094.47934,790 L1120.1405,790.959596 L1120.1405,792.878788 L1117.28926,793.838384 L1112.53719,795.757576 L1112.53719,796.717172 L1115.38843,798.636364 L1119.19008,800.555556 L1122.99174,802.474747 L1126.79339,801.515152 L1130.59504,799.59596 L1137.24793,799.59596 L1142,800.555556 L1142,802.474747 L1139.14876,803.434343 L1132.49587,806.313131 L1130.59504,808.232323 L1123.94215,812.070707 L1117.28926,817.828283 L1117.28926,822.626263 L1122.99174,826.464646 L1122.99174,827.424242 L1119.19008,833.181818 L1116.33884,836.060606 L1113.4876,836.060606 L1111.58678,835.10101 L1108.73554,836.060606 L1108.73554,838.939394 L1112.53719,842.777778 L1112.53719,844.69697 L1108.73554,844.69697 L1106.83471,842.777778 L1104.93388,842.777778 L1104.93388,845.656566 L1109.68595,847.575758 L1112.53719,847.575758 L1111.58678,851.414141 L1103.03306,851.414141 L1090.67769,853.333333 L1077.3719,859.090909 L1065.96694,862.929293 L1049.80992,883.080808 L1046.00826,885 L1041.2562,880.20202 L1035.55372,876.363636 L1035.55372,861.969697 L1043.15702,851.414141 L1048.8595,841.818182 L1045.05785,834.141414 L1043.15702,823.585859 L1036.50413,818.787879 L1027.95041,818.787879 L1027,813.989899 L1030.80165,811.111111 L1032.70248,812.070707 L1038.40496,812.070707 L1040.30579,810.151515 L1040.30579,806.313131 L1069.7686,793.838384 L1074.52066,793.838384 L1079.27273,796.717172 L1090.67769,795.757576 L1094.47934,790 Z M986.2,827 L986.2,829.88 L988.12,832.76 L995.8,831.8 L998.68,834.68 L1004.44,838.52 L1008.28,842.36 L1007.32,845.24 L1005.4,848.12 L1005.4,849.08 L1015,854.84 L1014.04,857.72 L1004.44,863.48 L1001.56,861.56 L999.64,858.68 L997.72,858.68 L997.72,864.44 L992.92,874.04 L991,875 L987.16,872.12 L979.48,864.44 L969.88,864.44 L967.96,862.52 L972.76,858.68 L980.44,858.68 L990.04,848.12 L992.92,845.24 L991.96,842.36 L982.36,841.4 L973.72,840.44 L967.96,838.52 L967,833.72 L976.6,827 L986.2,827 Z M1107.79167,860 L1110.66667,863.692308 L1112.58333,863.692308 L1116.41667,861.846154 L1123.125,860.923077 L1126,863.692308 L1125.04167,868.307692 L1119.29167,872 L1110.66667,871.076923 L1105.875,870.153846 L1105.875,867.384615 L1103.95833,866.461538 L1103,862.769231 L1105.875,860 L1107.79167,860 Z M960.214286,856 L961.142857,857 L961.142857,862 L963,863 L963,866 L961.142857,866 L959.285714,863 L956.5,863 L954.642857,864 L954.642857,866 L951.857143,865 L950,863 L950,861 L956.5,856 L960.214286,856 Z M1289.4375,833 L1290.375,839.363636 L1291.3125,840.272727 L1296,841.181818 L1296,843 L1290.375,843 L1288.5,842.090909 L1281,840.272727 L1282.875,833 L1289.4375,833 Z M922.764706,823 L930.294118,827 L935,828 L935,831 L932.176471,834 L933.117647,835 L934.058824,838 L933.117647,838 L929.352941,839 L926.529412,841 L923.705882,840 L920.882353,839 L906.764706,839 L903,836 L903,834 L909.588235,833 L913.352941,834 L913.352941,832 L910.529412,831 L909.588235,831 L909.588235,829 L917.117647,824 L922.764706,823 Z M950.5,822 L957,824 L957,827 L955.142857,830 L951.428571,834 L946.785714,834 L944,831 L944,826 L950.5,822 Z M970,825 L970,828 L965.384615,831 L960.769231,833 L958,833 L958,829 L960.769231,826 L964.461538,825 L970,825 Z M1306,816 L1306,821 L1300.26087,826 L1296.43478,826 L1293.56522,828 L1292.6087,828 L1289.73913,831 L1284,831 L1284.95652,827 L1286.86957,827 L1290.69565,821 L1295.47826,822 L1298.34783,822 L1305.04348,816 L1306,816 Z M913.56,816 L920,819.714286 L920,821.571429 L909.88,824.357143 L905.28,829 L898.84,829 L897,827.142857 L902.52,823.428571 L908.04,817.857143 L913.56,816 Z M977.814815,814 L982.62963,820 L998.037037,820 L999,824 L983.592593,824 L974.925926,821 L973,815 L977.814815,814 Z M964,813 L966,815 L966,818 L961,821 L959,821 L958,815 L958,813 L964,813 Z M946.2,811 L949.05,812 L950,816 L947.15,820 L942.4,821 L931,821 L931,816 L935.75,813 L938.6,812 L942.4,816 L943.35,816 L946.2,811 Z M1021.09434,792 L1025.90566,794.76 L1038.41509,794.76 L1046.11321,793.84 L1049,793.84 L1049,795.68 L1040.33962,801.2 L1031.67925,801.2 L1022.0566,804.88 L1012.43396,814.08 L1007.62264,815 L1000.88679,815 L998,812.24 L998,810.4 L1002.81132,805.8 L1010.50943,802.12 L1018.20755,800.28 L1018.20755,798.44 L1012.43396,797.52 L1003.77358,798.44 L998.962264,797.52 L998.962264,795.68 L1005.69811,793.84 L1012.43396,792 L1021.09434,792 Z M1681.38095,1281 L1683.28571,1282.93939 L1684.2381,1291.66667 L1684.2381,1296.51515 L1689,1297.48485 L1689,1300.39394 L1684.2381,1300.39394 L1680.42857,1303.30303 L1675.66667,1308.15152 L1672.80952,1313 L1669,1312.0303 L1669.95238,1308.15152 L1670.90476,1302.33333 L1674.71429,1300.39394 L1678.52381,1296.51515 L1679.47619,1289.72727 L1680.42857,1282.93939 L1681.38095,1281 Z" id="Combined-Shape"></path>
        </g>
    </g>
</svg>