<?xml version="1.0" encoding="UTF-8"?>
<svg width="40px" height="40px" viewBox="0 0 40 40" version="1.1" xmlns="http://www.w3.org/2000/svg" xmlns:xlink="http://www.w3.org/1999/xlink">
    <title>Calling</title>
    <g id="Page-1" stroke="none" stroke-width="1" fill="none" fill-rule="evenodd">
        <g id="Desktop-HD-Copy-14" transform="translate(-834.000000, -1118.000000)" fill="#FECD30" fill-rule="nonzero">
            <path d="M842.678217,1118.00064 L842.894065,1118.00345 L842.950956,1118.00722 C843.991475,1118.0968 844.897421,1118.61712 845.721306,1119.42625 L845.721306,1119.42625 L845.975989,1119.68391 C847.556842,1121.34508 850.403991,1125.16083 850.868532,1126.51328 L850.868532,1126.51328 L850.91854,1126.69043 C851.201726,1128.05739 850.900315,1128.94511 850.0012,1130.51545 L850.0012,1130.51545 L849.783868,1130.9014 C849.37137,1131.65826 849.308331,1131.97044 849.435818,1132.32788 C851.396924,1137.15222 854.743463,1140.51553 859.48929,1142.46381 C859.938648,1142.62779 860.277854,1142.53424 861.226484,1141.9872 L861.226484,1141.9872 L861.723272,1141.70467 C863.057274,1140.96915 863.902941,1140.73638 865.150178,1140.99641 C866.212468,1141.21965 869.646751,1143.74505 871.630442,1145.51883 L871.630442,1145.51883 L872.178209,1146.02536 L872.375001,1146.2209 C873.181404,1147.05079 873.700546,1147.96247 873.79097,1149.07925 C873.886268,1151.79366 870.591165,1155.61557 868.581902,1156.76415 C866.296649,1158.40981 863.396124,1158.38196 860.141717,1156.85945 C851.636055,1153.30182 838.625304,1140.30746 835.15803,1131.7684 L835.15803,1131.7684 L834.950584,1131.291 C833.634744,1128.12949 833.663715,1125.39628 835.17051,1123.33812 C836.543798,1121.04767 840.260376,1117.88092 842.894065,1118.00345 Z M842.729948,1120.92794 L842.557885,1120.937 C841.206319,1121.11783 838.491814,1123.46695 837.591085,1124.95838 L837.591085,1124.95838 L837.435242,1125.1916 C836.658098,1126.46499 836.747892,1128.21517 837.830226,1130.60913 L837.830226,1130.60913 L838.037218,1131.09615 C841.530162,1138.97598 853.624133,1150.96365 861.314369,1154.18151 L861.314369,1154.18151 L861.73818,1154.37099 C863.964297,1155.31959 865.647778,1155.27775 867.010901,1154.30482 L867.010901,1154.30482 L867.111734,1154.23964 C867.533688,1153.94495 868.506737,1153.05627 869.25623,1152.18695 C870.308933,1150.96594 870.905195,1149.84723 870.885925,1149.25174 C870.864924,1148.99698 870.669379,1148.65358 870.311715,1148.28514 L870.311715,1148.28514 L870.149719,1148.12423 C868.762888,1146.78988 864.979691,1143.95042 864.556855,1143.86156 C864.124185,1143.77135 863.768769,1143.89327 862.798023,1144.45463 L862.798023,1144.45463 L862.30786,1144.73142 C860.877132,1145.50685 859.867288,1145.71506 858.442796,1145.19413 C852.919443,1142.92808 848.998194,1138.98717 846.719912,1133.37936 C846.180192,1131.87976 846.470917,1130.81935 847.410112,1129.17476 L847.410112,1129.17476 L847.63326,1128.78028 C848.059766,1128.00649 848.14977,1127.67816 848.068385,1127.2853 C847.982258,1126.86681 845.378273,1123.36705 844.034152,1121.88299 L844.034152,1121.88299 L843.687663,1121.51823 L843.504083,1121.35036 C843.25204,1121.13378 843.028209,1121.00234 842.838404,1120.94877 L842.838404,1120.94877 L842.729948,1120.92794 Z M858.96259,1125.40192 L859.158982,1125.42679 C863.175682,1126.21392 866.314467,1129.3696 867.097383,1133.40791 C867.251167,1134.20114 866.736238,1134.96951 865.947257,1135.12413 C865.158275,1135.27874 864.394012,1134.76104 864.240227,1133.96781 C863.684118,1131.09938 861.455159,1128.85843 858.602079,1128.29932 C857.813097,1128.14471 857.298168,1127.37634 857.451953,1126.58311 C857.580106,1125.92209 858.132204,1125.4524 858.769263,1125.40368 L858.96259,1125.40192 Z M858.843373,1118.48747 L859.041131,1118.4961 C866.900702,1119.37337 873.107442,1125.606 873.990761,1133.50685 C874.080548,1134.30995 873.50578,1135.03417 872.706981,1135.12444 C871.908181,1135.21471 871.18784,1134.63685 871.098053,1133.83375 C870.366653,1127.29173 865.227542,1122.13119 858.71993,1121.40482 C857.921009,1121.31564 857.345259,1120.59221 857.433956,1119.78899 C857.50787,1119.11964 858.019881,1118.60611 858.650837,1118.50513 L858.843373,1118.48747 Z" id="Calling"></path>
        </g>
    </g>
</svg>