<?xml version="1.0" encoding="UTF-8"?>
<svg width="34px" height="29px" viewBox="0 0 34 29" version="1.1" xmlns="http://www.w3.org/2000/svg" xmlns:xlink="http://www.w3.org/1999/xlink">
    <title>vuesax/outline/sms-tracking</title>
    <g id="Page-1" stroke="none" stroke-width="1" fill="none" fill-rule="evenodd">
        <g id="Desktop-HD-Copy-14" transform="translate(-1203.000000, -1585.000000)" fill="#FFFFFF" fill-rule="nonzero">
            <g id="sms-tracking" transform="translate(1203.000000, 1585.000000)">
                <path d="M24.2635135,0 C29.8864866,0 33.1216216,3.23513499 33.1216216,8.85810811 L33.1216216,19.6418919 C33.1216216,25.264865 29.8864866,28.5 24.2635135,28.5 L8.85810811,28.5 C8.22648649,28.5 7.7027027,27.9762162 7.7027027,27.3445946 C7.7027027,26.712973 8.22648649,26.1891892 8.85810811,26.1891892 L24.2635135,26.1891892 C28.6694593,26.1891892 30.8108108,24.0478377 30.8108108,19.6418919 L30.8108108,8.85810811 C30.8108108,4.45216232 28.6694593,2.31081081 24.2635135,2.31081081 L8.85810811,2.31081081 C4.45216232,2.31081081 2.31081081,4.45216232 2.31081081,8.85810811 C2.31081081,9.48972972 1.78702702,10.0135135 1.15540541,10.0135135 C0.523783789,10.0135135 0,9.48972972 0,8.85810811 C0,3.23513499 3.23513499,0 8.85810811,0 L24.2635135,0 Z M10.3986486,20.027027 C11.0302703,20.027027 11.5540541,20.5508108 11.5540541,21.1824324 C11.5540541,21.814054 11.0302703,22.3378378 10.3986486,22.3378378 L1.15540541,22.3378378 C0.523783789,22.3378378 0,21.814054 0,21.1824324 C0,20.5508108 0.523783789,20.027027 1.15540541,20.027027 L10.3986486,20.027027 Z M5.77702703,13.8648649 C6.40864864,13.8648649 6.93243243,14.3886487 6.93243243,15.0202703 C6.93243243,15.6518919 6.40864864,16.1756757 5.77702703,16.1756757 L1.15540541,16.1756757 C0.523783789,16.1756757 0,15.6518919 0,15.0202703 C0,14.3886487 0.523783789,13.8648649 1.15540541,13.8648649 L5.77702703,13.8648649 Z M25.1551596,8.90427607 C25.5557001,9.39724903 25.4786806,10.1367131 24.9703022,10.5218483 L20.1484028,14.3731998 C19.1624569,15.1896862 17.8530181,15.5902165 16.5589641,15.5902165 C15.26491,15.5902165 13.9554562,15.1896862 12.9541048,14.3731998 L8.13220561,10.5218483 C7.63923264,10.1213077 7.54680771,9.39724903 7.94734824,8.90427607 C8.34788877,8.41130311 9.07192406,8.31887818 9.56489702,8.71941871 L14.3867963,12.5707702 C15.5576071,13.5104999 17.5449006,13.5104999 18.7157114,12.5707702 L23.5376108,8.71941871 C24.0305838,8.31887818 24.7700245,8.39589767 25.1551596,8.90427607 Z" id="Combined-Shape"></path>
            </g>
        </g>
    </g>
</svg>