<?xml version="1.0" encoding="UTF-8"?>
<svg width="28px" height="25px" viewBox="0 0 28 25" version="1.1" xmlns="http://www.w3.org/2000/svg" xmlns:xlink="http://www.w3.org/1999/xlink">
    <title>Message</title>
    <g id="Page-1" stroke="none" stroke-width="1" fill="none" fill-rule="evenodd">
        <g id="Desktop-HD-Copy-14" transform="translate(-146.000000, -1118.000000)" fill="#2ECC71" fill-rule="nonzero">
            <path d="M166.335414,1118 C168.45494,1118.02368 170.472277,1118.9138 171.917597,1120.46312 C173.362917,1122.01243 174.110056,1124.0857 173.986859,1126.13746 L173.986859,1126.13746 L173.985009,1134.79992 C174.110056,1136.9143 173.362917,1138.98757 171.917597,1140.53688 C170.472277,1142.0862 168.45494,1142.97632 166.323571,1143 L166.323571,1143 L153.638658,1143 C149.201309,1143 146,1139.44235 146,1134.86254 L146,1134.86254 L146,1126.13746 C146,1121.55765 149.201309,1118 153.638658,1118 L153.638658,1118 Z M166.311727,1120.12275 L153.638658,1120.12275 C150.427905,1120.12275 148.124415,1122.68271 148.124415,1126.13746 L148.124415,1126.13746 L148.124415,1134.86254 C148.124415,1138.31729 150.427905,1140.87725 153.638658,1140.87725 L153.638658,1140.87725 L166.311727,1140.87725 C167.850215,1140.86011 169.314528,1140.214 170.363634,1139.08941 C171.41274,1137.96482 171.955061,1136.4599 171.862444,1134.86254 L171.862444,1134.86254 L171.864294,1126.07484 C171.955061,1124.5401 171.41274,1123.03518 170.363634,1121.91059 C169.314528,1120.786 167.850215,1120.13989 166.311727,1120.12275 L166.311727,1120.12275 Z M168.758246,1125.37938 C169.104069,1125.77579 169.071963,1126.3378 168.706205,1126.69894 L168.586512,1126.80089 L162.620086,1131.18254 C161.170979,1132.21885 159.168708,1132.27067 157.657776,1131.33329 L157.423444,1131.17706 L151.417082,1126.80351 C150.94025,1126.45631 150.860473,1125.82018 151.238895,1125.38268 C151.582915,1124.98495 152.18718,1124.8883 152.652454,1125.13488 L152.787468,1125.21919 L158.786238,1129.58726 C159.458813,1130.06825 160.380854,1130.10525 161.083013,1129.70463 L161.253701,1129.59537 L167.208945,1125.22181 C167.684196,1124.87279 168.377841,1124.94333 168.758246,1125.37938 Z" id="Message"></path>
        </g>
    </g>
</svg>