<?xml version="1.0" encoding="UTF-8"?>
<svg width="44px" height="38px" viewBox="0 0 44 38" version="1.1" xmlns="http://www.w3.org/2000/svg" xmlns:xlink="http://www.w3.org/1999/xlink">
    <title>Message</title>
    <g id="Page-1" stroke="none" stroke-width="1" fill="none" fill-rule="evenodd">
        <g id="Desktop-HD-Copy-14" transform="translate(-833.000000, -1032.000000)" fill="#FECD30" fill-rule="nonzero">
            <path d="M864.629524,1032.05922 C867.829908,1032.09498 870.875994,1033.43902 873.058359,1035.77841 C875.240724,1038.1178 876.368869,1041.24835 876.182848,1044.3464 L876.182848,1044.3464 L876.180054,1057.42632 C876.368869,1060.61892 875.240724,1063.74947 873.058359,1066.08886 C870.875994,1068.42825 867.829908,1069.77229 864.611641,1069.80805 L864.611641,1069.80805 L845.458016,1069.80805 C838.757827,1069.80805 833.924001,1064.43616 833.924001,1057.52087 L833.924001,1057.52087 L833.924001,1044.3464 C833.924001,1037.43111 838.757827,1032.05922 845.458016,1032.05922 L845.458016,1032.05922 Z M864.593758,1035.26447 L845.458016,1035.26447 C840.609931,1035.26447 837.131768,1039.1299 837.131768,1044.3464 L837.131768,1044.3464 L837.131768,1057.52087 C837.131768,1062.73737 840.609931,1066.6028 845.458016,1066.6028 L845.458016,1066.6028 L864.593758,1066.6028 C866.916802,1066.57691 869.127846,1065.60133 870.711947,1063.90324 C872.296048,1062.20516 873.114928,1059.93281 872.97508,1057.52087 L872.97508,1057.52087 L872.977874,1044.25186 C873.114928,1041.93446 872.296048,1039.66211 870.711947,1037.96403 C869.127846,1036.26594 866.916802,1035.29036 864.593758,1035.26447 L864.593758,1035.26447 Z M868.287887,1043.20174 C868.810062,1043.8003 868.761585,1044.64891 868.209307,1045.19421 L868.028576,1045.34815 L859.019552,1051.96424 C856.831469,1053.52903 853.808134,1053.60726 851.526697,1052.19187 L851.172866,1051.95597 L842.103541,1045.35211 C841.383548,1044.82785 841.263088,1043.86732 841.834487,1043.20672 C842.353941,1042.60617 843.266354,1042.46023 843.968896,1042.83255 L844.172759,1042.95986 L853.230621,1049.55544 C854.246179,1050.28171 855.638417,1050.33758 856.698645,1049.73267 L856.956375,1049.56768 L865.948514,1042.96382 C866.666121,1042.43681 867.713493,1042.54333 868.287887,1043.20174 Z" id="Message"></path>
        </g>
    </g>
</svg>