<?xml version="1.0" encoding="UTF-8"?>
<svg width="21px" height="21px" viewBox="0 0 21 21" version="1.1" xmlns="http://www.w3.org/2000/svg" xmlns:xlink="http://www.w3.org/1999/xlink">
    <title>Shape</title>
    <g id="Page-1" stroke="none" stroke-width="1" fill="none" fill-rule="evenodd">
        <g id="Desktop-HD-Copy-8" transform="translate(-291.000000, -1540.000000)" fill="#D7AB1C" fill-rule="nonzero">
            <g id="Group-2" transform="translate(103.000000, 1529.000000)">
                <path d="M194.204545,11 C190.7825,11 188,13.7825 188,17.2045455 L188,25.7954545 C188,29.2175 190.7825,32 194.204545,32 L202.795455,32 C206.2175,32 209,29.2175 209,25.7954545 L209,17.2045455 C209,13.7825 206.2175,11 202.795455,11 L194.204545,11 Z M204.227273,14.8181818 C204.752273,14.8181818 205.181818,15.2477273 205.181818,15.7727273 C205.181818,16.2977273 204.752273,16.7272727 204.227273,16.7272727 C203.702273,16.7272727 203.272727,16.2977273 203.272727,15.7727273 C203.272727,15.2477273 203.702273,14.8181818 204.227273,14.8181818 Z M198.5,16.25 C201.397045,16.25 203.75,18.6029545 203.75,21.5 C203.75,24.3970455 201.397045,26.75 198.5,26.75 C195.602955,26.75 193.25,24.3970455 193.25,21.5 C193.25,18.6029545 195.602955,16.25 198.5,16.25 Z M198.5,17.2045455 C196.132727,17.2045455 194.204545,19.1327273 194.204545,21.5 C194.204545,23.8672727 196.132727,25.7954545 198.5,25.7954545 C200.867273,25.7954545 202.795455,23.8672727 202.795455,21.5 C202.795455,19.1327273 200.867273,17.2045455 198.5,17.2045455 Z" id="Shape"></path>
            </g>
        </g>
    </g>
</svg>