<?xml version="1.0" encoding="UTF-8"?>
<svg width="19px" height="18px" viewBox="0 0 19 18" version="1.1" xmlns="http://www.w3.org/2000/svg" xmlns:xlink="http://www.w3.org/1999/xlink">
    <title>icons8-linkedin</title>
    <g id="Page-1" stroke="none" stroke-width="1" fill="none" fill-rule="evenodd">
        <g id="Desktop-HD-Copy-8" transform="translate(-232.000000, -1540.000000)" fill="#D7AB1C" fill-rule="nonzero">
            <g id="Group-2" transform="translate(103.000000, 1529.000000)">
                <g id="icons8-linkedin" transform="translate(129.977273, 11.727273)">
                    <path d="M3.69191919,4.92255892 L3.69191919,16.6136364 L0,16.6136364 L0,4.92255892 L3.69191919,4.92255892 Z M0,1.51984007 C0,0.658392256 0.738383838,0 1.8459596,0 C2.95353535,0 3.6488468,0.658392256 3.69191919,1.51984007 C3.69191919,2.38128788 3.00276094,3.07659933 1.8459596,3.07659933 C0.738383838,3.07659933 0,2.38128788 0,1.51984007 Z M17.2289562,16.6136364 L13.537037,16.6136364 C13.537037,16.6136364 13.537037,10.9157744 13.537037,10.4604377 C13.537037,9.22979798 12.9217172,7.99915825 11.3834175,7.97454545 L11.3341919,7.97454545 C9.84511785,7.97454545 9.22979798,9.24210438 9.22979798,10.4604377 C9.22979798,11.0203788 9.22979798,16.6136364 9.22979798,16.6136364 L5.53787879,16.6136364 L5.53787879,4.92255892 L9.22979798,4.92255892 L9.22979798,6.49777778 C9.22979798,6.49777778 10.4173653,4.92255892 12.8048064,4.92255892 C15.2476263,4.92255892 17.2289562,6.60238215 17.2289562,10.005101 L17.2289562,16.6136364 Z" id="Shape"></path>
                </g>
            </g>
        </g>
    </g>
</svg>