<?xml version="1.0" encoding="UTF-8"?>
<svg width="49px" height="46px" viewBox="0 0 49 46" version="1.1" xmlns="http://www.w3.org/2000/svg" xmlns:xlink="http://www.w3.org/1999/xlink">
    <title>Combined Shape</title>
    <g id="Page-1" stroke="none" stroke-width="1" fill="none" fill-rule="evenodd">
        <g id="Desktop-HD-Copy-14" transform="translate(-827.000000, -921.000000)" fill="#FECD30" fill-rule="nonzero">
            <path d="M854.840069,941.341289 L856.57791,944.714745 L846.355316,944.714745 L870.787316,956.266276 L868.487232,946.197021 C869.100588,945.021423 869.867282,943.539147 870.633977,942.056871 C870.991767,942.414661 871.247332,942.823565 871.349558,943.334695 L871.349558,943.334695 L876.000839,963.830996 C876.154177,964.59769 876.000839,965.415498 875.540822,966.028854 C875.029692,966.642209 874.262998,967 873.496303,967 L873.496303,967 L830.101392,967 C829.283584,967 828.568002,966.642209 828.056873,966.028854 C827.545743,965.415498 827.392404,964.59769 827.545743,963.830996 L827.545743,963.830996 L832.248136,943.385808 C832.554814,942.159097 833.577073,941.341289 834.803785,941.341289 L834.803785,941.341289 L854.840069,941.341289 Z M838.381693,944.714745 L835.41714,944.714745 L831.072538,963.626544 L838.33058,963.626544 L846.406429,948.497105 L838.381693,944.714745 Z M849.473207,949.979381 L842.164052,963.626544 L852.233307,963.626544 L860.871399,955.346243 L849.473207,949.979381 Z M864.142629,956.930745 L857.140153,963.626544 L872.474044,963.626544 L871.758462,960.508653 L864.142629,956.930745 Z M858.877994,921.969474 C863.324822,919.720503 868.691684,921.509457 870.940654,925.905172 C872.269592,928.563047 872.218479,931.425373 870.940654,933.981021 C870.4798,934.902731 869.46048,936.90148 868.345467,939.080499 L868.039348,939.678572 C866.141269,943.385945 864.091517,947.37262 864.091517,947.37262 C863.6315,948.343766 862.200337,948.343766 861.74032,947.37262 C861.74032,947.37262 861.73532,947.362784 861.72557,947.343609 L861.682323,947.25856 C861.33085,946.567413 859.439521,942.849268 857.593816,939.240869 L857.295163,938.657181 C856.401906,936.911975 855.53973,935.23287 854.891182,933.981021 C852.744437,929.738645 854.431165,924.218444 858.877994,921.969474 Z M862.915918,925.854059 C860.564722,925.854059 858.673542,927.796352 858.673542,930.096436 C858.673542,932.447632 860.564722,934.338812 862.915918,934.338812 C865.267115,934.338812 867.158295,932.447632 867.158295,930.096436 C867.158295,927.745239 865.267115,925.854059 862.915918,925.854059 Z" id="Combined-Shape"></path>
        </g>
    </g>
</svg>