<?xml version="1.0" encoding="UTF-8"?>
<svg width="20px" height="20px" viewBox="0 0 20 20" version="1.1" xmlns="http://www.w3.org/2000/svg" xmlns:xlink="http://www.w3.org/1999/xlink">
    <title>Group 2</title>
    <g id="Page-1" stroke="none" stroke-width="1" fill="none" fill-rule="evenodd">
        <g id="Desktop-HD-Copy-8" transform="translate(-251.000000, -612.000000)" fill="#000000" fill-rule="nonzero">
            <g id="Group-2" transform="translate(251.000000, 612.000000)">
                <path d="M10,0 C15.5222136,0 20,4.47778644 20,10 C20,15.5222136 15.5222136,20 10,20 C4.47711926,20 0,15.5225464 0,10 C0,4.47745359 4.47711926,0 10,0 Z M10,1.5 C5.30557146,1.5 1.5,5.30585564 1.5,10 C1.5,14.6941444 5.30557146,18.5 10,18.5 C14.6937864,18.5 18.5,14.6937864 18.5,10 C18.5,5.30621356 14.6937864,1.5 10,1.5 Z M8.63079135,6.24906649 L8.71631751,6.32002128 L12.2623639,9.72965354 C12.5346283,9.9914441 12.5662544,10.4091001 12.3524303,10.7069509 L12.2809148,10.7924362 L8.85602306,14.3237467 C8.56764438,14.6210859 8.0928262,14.6283499 7.79548698,14.3399712 C7.5251786,14.0778087 7.49460185,13.6615641 7.70793956,13.3646545 L7.77926249,13.2794351 L10.679014,10.2898444 L7.67665883,7.4012751 C7.40522247,7.14028072 7.37285107,6.72417178 7.58490647,6.42634501 L7.65586126,6.34081885 C7.91685564,6.06938249 8.33296458,6.03701109 8.63079135,6.24906649 Z" id="Combined-Shape"></path>
            </g>
        </g>
    </g>
</svg>