<?xml version="1.0" encoding="UTF-8"?>
<svg width="23px" height="23px" viewBox="0 0 23 23" version="1.1" xmlns="http://www.w3.org/2000/svg" xmlns:xlink="http://www.w3.org/1999/xlink">
    <title>Group 2</title>
    <g id="Page-1" stroke="none" stroke-width="1" fill="none" fill-rule="evenodd">
        <g id="Desktop-HD-Copy-4" transform="translate(-230.000000, -459.000000)" fill="#FECD30" fill-rule="nonzero">
            <g id="Group-3" transform="translate(122.000000, 457.000000)">
                <g id="Group-2" transform="translate(108.000000, 2.000000)">
                    <path d="M11.5,0 C5.14868714,0 0,5.14907163 0,11.5 C0,17.8509284 5.14868714,23 11.5,23 C17.8505456,23 23,17.8505456 23,11.5 C23,5.1494544 17.8505456,0 11.5,0 Z M11.5,1.725 C16.8978544,1.725 21.275,6.1021456 21.275,11.5 C21.275,16.8978544 16.8978544,21.275 11.5,21.275 C6.10140717,21.275 1.725,16.898266 1.725,11.5 C1.725,6.10173399 6.10140717,1.725 11.5,1.725 Z" id="Arrow---Right-Circle"></path>
                    <path d="M6.89955678,9.23016186 C7.20642282,8.92461624 7.68564496,8.89781246 8.02275722,9.14907252 L8.11931314,9.23279178 L11.49862,12.627 L14.8802269,9.23279178 C15.1857725,8.92592573 15.6648746,8.89705572 16.0030672,9.14685975 L16.0999832,9.23016186 C16.4068493,9.53570748 16.4357193,10.0148096 16.1859153,10.3530022 L16.1026131,10.4499182 L12.1109631,14.4588182 C11.8044854,14.7666204 11.3236194,14.7946024 10.9854348,14.5427643 L10.8885769,14.4588182 L6.89692686,10.4499182 C6.56082667,10.1123656 6.56200413,9.56626205 6.89955678,9.23016186 Z" id="Stroke-3" transform="translate(11.499770, 11.845805) rotate(-91.000000) translate(-11.499770, -11.845805) "></path>
                </g>
            </g>
        </g>
    </g>
</svg>