<?xml version="1.0" encoding="UTF-8"?>
<svg width="22px" height="18px" viewBox="0 0 22 18" version="1.1" xmlns="http://www.w3.org/2000/svg" xmlns:xlink="http://www.w3.org/1999/xlink">
    <title>Path</title>
    <g id="Page-1" stroke="none" stroke-width="1" fill="none" fill-rule="evenodd">
        <g id="Desktop-HD-Copy-8" transform="translate(-114.000000, -1542.000000)" fill="#D7AB1C" fill-rule="nonzero">
            <g id="Group-2" transform="translate(103.000000, 1529.000000)">
                <path d="M32.3268779,15.6632655 C31.5686831,15.9999769 30.7542378,16.2265638 29.899387,16.3287656 C30.7724598,15.8058727 31.4419212,14.9779589 31.7572415,13.9908004 C30.9412116,14.4748725 30.0364484,14.8266368 29.0730577,15.0167797 C28.3021868,14.195204 27.2041116,13.6818182 25.9887816,13.6818182 C23.6547777,13.6818182 21.7628559,15.5745322 21.7628559,17.9077439 C21.7628559,18.2389094 21.8008845,18.5621523 21.8721881,18.8703423 C18.3600905,18.6944601 15.2465007,17.0116955 13.161267,14.4542737 C12.798411,15.0785762 12.5900461,15.8042882 12.5900461,16.5799127 C12.5900461,18.0455975 13.3355647,19.3393614 14.4692916,20.0967639 C13.7768546,20.0745805 13.124823,19.8844377 12.5551866,19.5683251 C12.5551866,19.5865471 12.5551866,19.6031846 12.5551866,19.6214067 C12.5551866,21.669404 14.0113642,23.377521 15.9452758,23.7649371 C15.5911347,23.8615931 15.217187,23.9130901 14.8313554,23.9130901 C14.5596095,23.9130901 14.2942017,23.8861532 14.0367166,23.8378252 C14.5746625,25.5166285 16.1354187,26.7390888 17.9845583,26.7731561 C16.5386801,27.906883 14.7164774,28.5826825 12.7358223,28.5826825 C12.3951496,28.5826825 12.0584383,28.562876 11.7272727,28.5232629 C13.5978034,29.7219554 15.8185139,30.4215227 18.2055994,30.4215227 C25.9792745,30.4215227 30.228968,23.9820169 30.228968,18.3973618 C30.228968,18.2143493 30.2250067,18.032129 30.2170841,17.850701 C31.0434134,17.2541277 31.7604106,16.5101936 32.3268779,15.6632655 Z" id="Path"></path>
            </g>
        </g>
    </g>
</svg>